<?xml version="1.0" encoding="utf-8"?>
<!-- Generator: Adobe Illustrator 28.0.0, SVG Export Plug-In . SVG Version: 6.00 Build 0)  -->
<svg version="1.1" id="Layer_1" xmlns="http://www.w3.org/2000/svg" xmlns:xlink="http://www.w3.org/1999/xlink" x="0px" y="0px"
	 viewBox="0 0 500 500" style="enable-background:new 0 0 500 500;" xml:space="preserve">
<style type="text/css">
	.st0{fill:#1B474C;enable-background:new    ;}
	.st1{fill:#455A64;}
	.st2{fill:#2E92A4;}
	.st3{opacity:0.4;fill:#FFFFFF;enable-background:new    ;}
	.st4{opacity:5.000000e-02;enable-background:new    ;}
	.st5{opacity:0.2;enable-background:new    ;}
	.st6{opacity:0.1;enable-background:new    ;}
	.st7{fill:#FFFFFF;}
	.st8{opacity:0.2;fill:#FFFFFF;enable-background:new    ;}
	.st9{opacity:0.2;}
	.st10{opacity:0.8;}
	.st11{display:none;}
	.st12{display:inline;}
	.st13{opacity:0.15;enable-background:new    ;}
	.st14{opacity:0.15;}
	.st15{fill:#E0E0E0;}
	.st16{fill:#37474F;}
	.st17{fill:#263238;}
	.st18{opacity:0.3;enable-background:new    ;}
	.st19{opacity:0.5;enable-background:new    ;}
	.st20{opacity:0.7;enable-background:new    ;}
	.st21{fill:#FAFAFA;}
	.st22{fill:#FFA8A7;}
	.st23{opacity:0.3;}
	.st24{fill:#F28F8F;}
</style>
<g id="freepik--Floor--inject-1--inject-68">
	<ellipse id="freepik--floor--inject-1--inject-68" class="st0" cx="250.9" cy="341.4" rx="243.5" ry="140.6"/>
</g>
<g id="freepik--World--inject-1--inject-68">
	<g id="freepik--world--inject-1--inject-68">
		<path class="st1" d="M319.9,143.1c15.3,38.1-3.3,81.4-41.4,96.6s-81.4-3.3-96.6-41.4s3.3-81.4,41.4-96.6
			c14.1-5.6,29.5-6.8,44.3-3.4C291.3,103.8,310.9,120.5,319.9,143.1z"/>
		<path class="st2" d="M242,107.3c-3.4,0.1-7.8,1.3-4.6,3.2s5.2,2.1,5.2,4.6s-1.6,5.1-0.8,6.9s2.1,3.8,3.4,3.2s4.8-4.6,6.9-4.4
			s8.9,0.5,9.9-1.8s2-2.1,3.7-4.6s1.6-5.8-0.5-5.8s-2.3,0.8-5.6,0.6s-4.9-2.5-8.2-1.9S244.5,107.2,242,107.3z"/>
		<path class="st2" d="M229.4,108.2c-3.9,2.1-12,5.2-15.7,4.1c-1.9-0.5-4.1-1.3-6.5-1.7c-14.5,10.5-24.7,26-28.8,43.4
			c0.9,1.9,2,3.6,3.4,5.2c2.9,3.4,6,3.9,9.7,4.6s2.6,2.8,4.4,5s2.6,3.5,4.7,4.7s-0.7,3.4-1.6,5.8s-1.1,3.8,0.7,8.6s6.7,8.9,8.2,10.8
			s-1,4.1-0.4,8s0.4,14.5,4.2,20.4s6.1,5.2,5.8,1.2s-1.6-7.8,0.7-10.8s7-2.2,8.6-7.7s2.6-5.2,5.1-7.1s1.4-3.5,3.8-7.7
			s3.1-8.2-0.4-10s-5.8-1.6-8.8-5.7c-3.2-4.3-7.3-7.8-12-10.4c-4.3-2.3-11.2,0.5-13.9-0.3s-4.5-6-4.3-8s-1.9-2.5-3.8-2.1
			s-3.1-0.8-3.6-3.4s3.6-6,6.9-6.2s5.1,1.3,5.8,5.6c0.4,3.6,3.1,6.5,6.6,7.2c3.1,0.8,1.1-2.4-1-4.6s-2.3-4.2-0.7-9s5.7-4.4,8.7-8.9
			s3.6-1.1,6.6-0.7s2.6-1.2,3.7-4s5-0.4,8.2-2.6s-3.4-5.8-3-8.8s3.5-2.9,1.8-7.5s0.6-4.7,1.8-6.4S233.2,106.1,229.4,108.2z
			 M224.9,119.3c-1,2.2-1.9,1.8-3.5,4.3c-1.4,2.1-3.5,3.5-5.9,4c-1.7,0.2-4.4-2.8-4.5-4.6s2.5-2.4,5.5-2.8c3-0.5,5.9-1.8,8.2-3.8
			C226.8,114.8,225.9,117.1,224.9,119.3z"/>
		<path class="st2" d="M325,165.1v0.2c-1.3,0.5-2.4,1.6-2.9,2.9c-1.7,4.1-2,2.3-6,5.1s-2.5,5-2.2,7.9s-4.4,6-6.6,7
			s-3.3,7.4-2.5,10.6s-3,4.4-5.3,7.2s-3.6,7.6-5.1,9.9c-1.5,2.3-4.2,3.6-6.9,3.2c-2.7-0.5-5.2-5-6.7-8.9c-1.5-4-1.9-8.3-1.1-12.4
			c0.9-4.2,0.5-3.7-0.5-10.3c-0.5-4.5-3.8-8.2-8.2-9.2c-2.6-0.6-6.8,0.9-9.1-0.5s-3.2-3.3-4.7-9.5s1.6-7.6,4-11
			c2.9-3.8,6.9-6.6,11.4-8.1c3.3-0.9,6.8-0.5,9.8,1.3c2.6,1.3,3.8,4.2,5.7,4.4s3.5-0.8,5.3-0.4s3.1,1.3,4.9,1s0.7-2.4,0.4-3.5
			s-1.9-0.9-4.1-0.9s-2.7-0.6-3.5-2.1s-2-0.2-3.1-0.8s-0.9,2.1-0.9,3.1s-0.9-0.8-0.9-0.8s-0.9,1.4-1.3,0.8s0.5-2.2,0.4-3.8
			s-2.4-1.2-3.9-2.4c-1.5-1.2-3.6-1.5-5.4-0.8c-2,0.6-2.3,0.2-3.2,1.9s-5.1,2.9-6.5,2.7s-0.4-3,0.8-5.4s3.5-1.6,5-4.1
			s-0.5-2.8-1.9-3.2s-1.8-1.7-0.4-4.8s3.3-2.3,4.1-0.8c0.9,1.5,2.6,2.3,4.4,2.2c1.8,0,1.4-1.3,1.4-4s1.2-4.1,3.6-5.1s6.5-2.7,8-4.1
			s4.3-0.5,5.8,1.1s4.7,2.2,8.1,2.7c0.9,0.1,1.8-0.2,2.4-0.8C317.6,134.5,323.8,149.4,325,165.1z"/>
		<path class="st2" d="M311.1,201.6c-1.8-0.3-1.6,0.3-2.7,1.7s-2.6,3-2.3,4.5s0.4,3.3,1.7,2.2s0.8-2.4,2.6-3.2
			S313.8,202.1,311.1,201.6z"/>
		<path class="st3" d="M270.3,104.8c-47.3-13.7-56.2,18.6-31.1,38.9s68.1,27,73.9,13.6S305.5,115,270.3,104.8z"/>
		<path class="st4" d="M230.8,208c-36.8-30.2-35.6-88.8-3.4-107.7l0,0c-1.4,0.5-2.7,0.9-4.1,1.5c-38.1,15.3-56.6,58.5-41.4,96.6
			s58.5,56.6,96.6,41.4c18.5-7.4,33.2-21.9,40.9-40.3C309.1,213.8,267.5,238.1,230.8,208z"/>
	</g>
	<g id="freepik--Icons--inject-1--inject-68">
		<g id="freepik--Contact--inject-1--inject-68">
			<path class="st2" d="M423.1,101.1c-2.5-1.4-5.9-1.2-9.7,0.9c-7.6,4.4-13.7,15-13.7,23.7c0,4.4,1.5,7.5,4,8.9l4.8,2.8
				c2.5,1.4,5.9,1.2,9.7-1c7.6-4.4,13.7-15,13.7-23.7c0-4.4-1.5-7.4-4-8.9"/>
			<path class="st2" d="M418.2,104.9c-7.6,4.4-13.7,15-13.7,23.7s6.1,12.3,13.7,7.9s13.7-15,13.7-23.7S425.8,100.5,418.2,104.9z"/>
			<path class="st2" d="M425.8,124.3v1c-1.8,3.2-4.4,6-7.6,7.9c-2.9,1.7-5.6,1.9-7.6,0.8v-2.1c0.2-4.3,2.5-8.3,6.2-10.7l2-1.2
				c1.8-1,3.5-1.2,4.8-0.4S425.8,122.2,425.8,124.3z"/>
			<path class="st3" d="M423.1,101.1l4.9,2.8c-2.5-1.4-5.9-1.2-9.7,0.9c-5,2.9-9.3,8.4-11.7,14.3l-4.9-2.8
				c2.4-5.9,6.8-11.5,11.7-14.3C417.2,99.9,420.6,99.7,423.1,101.1z"/>
			<path class="st5" d="M408.4,137.4l-4.6-2.7c-2.5-1.4-4-4.5-4-8.9l4.9,2.8C404.5,132.9,406,135.9,408.4,137.4z"/>
			<path class="st6" d="M401.7,116.4l4.9,2.8c-1.3,3-1.9,6.2-2,9.4l0,0l-4.9-2.8C399.8,122.6,400.4,119.4,401.7,116.4z"/>
			<path class="st7" d="M416.5,119.6c-0.5,0-0.9-0.1-1.3-0.3c-1-0.7-1.5-1.8-1.4-3c0.1-2.8,1.6-5.3,3.9-6.8l0,0
				c1.3-1,3.1-0.8,4.1,0.5c0.5,0.6,0.7,1.5,0.6,2.3c-0.1,2.8-1.6,5.3-3.9,6.8C417.9,119.4,417.2,119.6,416.5,119.6z"/>
			<path class="st7" d="M423.6,119.7c-1.3-0.8-3-0.6-4.8,0.4l-2,1.2c-3.7,2.4-6,6.3-6.2,10.7v2.1c2,1.1,4.6,0.9,7.6-0.8
				c3.1-2,5.7-4.7,7.6-7.9v-1C425.8,122.2,425,120.5,423.6,119.7z"/>
		</g>
		<g id="freepik--Twitter--inject-1--inject-68">
			<path class="st2" d="M352.8,219.2c1.4-3.2,2.1-6.6,2.1-10.1c0.7-1.1,1.3-2.2,1.7-3.4c-0.6,0.7-1.3,1.3-2,1.9
				c0.7-1,1.3-2.2,1.5-3.5c-0.6,0.9-1.4,1.7-2.2,2.4c-0.8-0.6-1.8-0.6-2.5,0c-2.4,1.7-3.7,4.7-3.4,7.7c-2.9,1.5-5.5,1.1-7.2-0.7
				c-0.9,2.6-0.5,5.1,1.1,5.6c-0.5,0.3-1,0.4-1.6,0.3c0,2.2,1.1,3.5,2.8,3c-0.4,0.4-1,0.8-1.6,1c0.2,1.1,1.2,1.9,2.3,1.7
				c0.3-0.1,0.6-0.2,0.9-0.4c-1.2,2.1-3,3.8-5.2,4.9c1.8,0.4,3.8,0,5.4-1C348.4,226.7,351.1,223.1,352.8,219.2"/>
		</g>
		<g id="freepik--Instagram--inject-1--inject-68">
			<path class="st2" d="M86.5,206.6c2.5-1.4,5.9-1.2,9.7,1c7.6,4.4,13.7,15,13.7,23.7c0,4.4-1.6,7.4-4,8.9l-4.8,2.8
				c-2.5,1.4-5.9,1.2-9.7-0.9c-7.6-4.4-13.7-15-13.7-23.7c0-4.4,1.5-7.4,4-8.9"/>
			<path class="st2" d="M91.4,210.3c7.6,4.4,13.7,15,13.7,23.7s-6.1,12.3-13.7,7.9s-13.7-15-13.7-23.7S83.8,206,91.4,210.3z"/>
			<path class="st7" d="M90.4,221.6c-1.7-1-3,0.1-3,2.3c0,2.3,1.1,4.5,3,5.8c1.7,1,3-0.1,3-2.3C93.4,225.1,92.3,223,90.4,221.6z
				 M90.4,228.3c-1.2-0.9-2-2.3-2-3.8c0-1.4,0.9-2.1,2-1.5c1.2,0.9,2,2.3,2,3.8C92.4,228.3,91.5,229,90.4,228.3z"/>
			<path class="st7" d="M94.9,223.3c0,0.5-0.3,0.8-0.7,0.5c-0.4-0.3-0.7-0.8-0.7-1.4c0-0.5,0.3-0.8,0.7-0.5
				C94.6,222.2,94.9,222.7,94.9,223.3"/>
			<path class="st7" d="M96.1,219.7l-10.6-6.1c-0.8-0.4-1.3,0-1.3,1v14.1c0,1,0.5,2,1.3,2.6l3.8,2.2l3.1,1.8l3.6,2.1
				c0.7,0.4,1.3,0,1.3-1v-14.1C97.4,221.2,96.9,220.3,96.1,219.7z M96.1,235.6L86,229.8c-0.3-0.2-0.5-0.6-0.5-0.9v-13.5l10.1,5.8
				c0.3,0.2,0.5,0.6,0.5,0.9V235.6z"/>
			<path class="st3" d="M86.5,206.6l-4.8,2.8c2.5-1.4,5.9-1.2,9.7,1c4.9,2.9,9.3,8.4,11.7,14.3l4.8-2.8c-2.4-5.9-6.7-11.5-11.7-14.3
				C92.4,205.3,89,205.1,86.5,206.6z"/>
			<path class="st5" d="M101.2,242.8l4.6-2.7c2.5-1.4,4-4.5,4-8.9l-4.8,2.8C105.1,238.3,103.6,241.3,101.2,242.8z"/>
			<path class="st6" d="M107.9,221.9l-4.8,2.8c1.3,3,1.9,6.2,2,9.4l0,0l4.8-2.8C109.9,228,109.2,224.8,107.9,221.9z"/>
		</g>
		<g id="freepik--Facebook--inject-1--inject-68">
			<path class="st2" d="M345.8,34c-2.5-1.4-5.9-1.2-9.7,1c-7.6,4.4-13.7,15-13.7,23.7c0,4.4,1.5,7.5,4,8.9l4.8,2.8
				c2.5,1.4,5.9,1.2,9.7-0.9c7.6-4.4,13.7-15,13.7-23.7c0-4.4-1.5-7.4-4-8.9"/>
			<path class="st2" d="M341,37.8c-7.6,4.4-13.7,15-13.7,23.7s6.1,12.3,13.7,7.9s13.7-15,13.7-23.7S348.5,33.4,341,37.8z"/>
			<path class="st3" d="M345.8,34l4.9,2.8c-2.5-1.4-5.9-1.2-9.7,1c-5,2.9-9.3,8.4-11.7,14.3l-4.9-2.8c2.4-5.9,6.7-11.5,11.7-14.3
				C339.9,32.8,343.3,32.6,345.8,34z"/>
			<path class="st5" d="M331.1,70.3l-4.6-2.7c-2.5-1.4-4-4.5-4-8.9l4.9,2.8C327.3,65.8,328.7,68.8,331.1,70.3z"/>
			<path class="st6" d="M324.4,49.3l4.9,2.8c-1.3,3-1.9,6.2-2,9.4l0,0l-4.9-2.8C322.5,55.5,323.1,52.3,324.4,49.3z"/>
			<g id="freepik--facebook--inject-1--inject-68">
				<path class="st7" d="M338.8,66.9l3.5-2V53.3l2.4-1.4l0.3-4l-2.7,1.5v-2.3c0-0.9,0.1-1.4,0.8-1.7l1.9-1.1v-4l-2.4,1.4
					c-2.4,1.3-3.9,3.9-3.8,6.6v3.1l-1.8,1v3.9l1.8-1L338.8,66.9z"/>
			</g>
		</g>
		<g id="freepik--Like--inject-1--inject-68">
			<path class="st2" d="M306.4,270.5c-2.5-1.4-5.9-1.2-9.7,1c-7.6,4.4-13.7,15-13.7,23.7c0,4.4,1.5,7.5,4,8.9l4.8,2.8
				c2.5,1.4,5.9,1.2,9.7-1c7.6-4.4,13.7-15,13.7-23.7c0-4.4-1.5-7.4-4-8.9"/>
			<path class="st2" d="M301.6,274.3c-7.6,4.4-13.7,15-13.7,23.7s6.1,12.3,13.7,7.9s13.7-15,13.7-23.7S309.1,269.9,301.6,274.3z"/>
			<path class="st3" d="M306.4,270.5l4.9,2.8c-2.5-1.4-5.9-1.2-9.7,1c-5,2.9-9.3,8.4-11.7,14.4l-4.9-2.8c2.4-5.9,6.7-11.5,11.7-14.3
				C300.5,269.3,303.9,269,306.4,270.5z"/>
			<path class="st5" d="M291.7,306.7L287,304c-2.5-1.4-4-4.5-4-8.9l4.9,2.8C287.9,302.2,289.3,305.3,291.7,306.7z"/>
			<path class="st6" d="M285,285.8l4.9,2.8c-1.3,3-1.9,6.2-2,9.4l0,0l-4.9-2.8C283.1,291.9,283.7,288.8,285,285.8z"/>
			<path class="st7" d="M298.4,289.2c0,0,2.2-5.1,2.4-5.8c0.1-1.3,0.1-2.5,0-3.8c0-0.5,2-1.9,2.7-0.5c0.6,1.5,0.7,3.2,0.3,4.7
				l4.9-2.9c1-0.6,1.5,0.2,1.5,0.9c0,0.8-0.3,1.5-0.8,2.1c0,0,1-0.3,1,1c-0.1,0.9-0.5,1.8-1.2,2.4c0,0,0.3,0.2,0.3,1.2
				c-0.1,1-0.6,1.8-1.4,2.5c0.1,0.4,0.2,0.8,0.2,1.2c-0.1,1.2-0.8,2.2-1.8,2.8l-8.1,4.8L298.4,289.2z"/>
			<polygon class="st7" points="293.7,304 297.3,302 297.2,289.6 293.7,291.7 			"/>
		</g>
		<g id="freepik--Heart--inject-1--inject-68">
			<path class="st2" d="M136.7,143.9l2.3-0.2c3-0.2,6.5-1.4,6.5-5.7c-0.2-3.2-1.9-6.1-4.5-7.8c-1.9-1.1-3.6-0.7-4.2,1
				c-0.6-2.4-2.1-4.5-4.2-5.9c-2.5-1.4-4.5-0.3-4.5,2.6c0,4.2,3.5,9.5,6.5,13.2L136.7,143.9z"/>
		</g>
		<g id="freepik--Play--inject-1--inject-68">
			<path class="st2" d="M189.3,267.5c2.5-1.4,5.9-1.2,9.7,1c7.6,4.4,13.7,15,13.7,23.7c0,4.4-1.6,7.5-4,8.9l-4.8,2.8
				c-2.5,1.4-5.9,1.2-9.7-1c-7.6-4.4-13.7-15-13.7-23.7c0-4.4,1.5-7.4,4-8.9"/>
			<path class="st2" d="M194.1,271.3c7.6,4.4,13.7,15,13.7,23.7s-6.1,12.3-13.7,7.9s-13.7-15-13.7-23.7S186.6,267,194.1,271.3z"/>
			<path class="st3" d="M189.3,267.5l-4.9,2.8c2.5-1.4,5.9-1.2,9.7,1c4.9,2.9,9.3,8.4,11.7,14.3l4.9-2.8
				c-2.4-5.9-6.7-11.5-11.7-14.3C195.2,266.3,191.8,266.1,189.3,267.5z"/>
			<path class="st5" d="M204,303.8l4.6-2.7c2.5-1.4,4-4.5,4-8.9l-4.8,2.8C207.8,299.3,206.4,302.3,204,303.8z"/>
			<path class="st6" d="M210.7,282.8l-4.9,2.8c1.3,3,1.9,6.2,2,9.4l0,0l4.9-2.8C212.6,289,212,285.8,210.7,282.8z"/>
			<path class="st7" d="M189.8,278.4v13.3c0,1,0.4,1.7,0.9,1.6l9.2-1.8c0.5-0.1,0.3-1-0.5-2l-8.2-11.1
				C190.4,277.5,189.8,277.4,189.8,278.4z"/>
		</g>
		<g id="freepik--Music--inject-1--inject-68">
			<path class="st2" d="M78.3,94.2c2.5-1.4,5.9-1.2,9.7,0.9c7.6,4.4,13.7,15,13.7,23.7c0,4.4-1.5,7.5-4,8.9l-4.8,2.8
				c-2.5,1.4-5.9,1.2-9.7-1c-7.6-4.4-13.7-15-13.7-23.7c0-4.4,1.5-7.4,4-8.9"/>
			<path class="st2" d="M83.2,98c7.6,4.4,13.7,15,13.7,23.7s-6.1,12.3-13.7,7.9s-13.7-15-13.7-23.7S75.6,93.6,83.2,98z"/>
			<path class="st3" d="M78.3,94.2L73.5,97c2.5-1.4,5.9-1.2,9.7,1c5,2.9,9.3,8.4,11.7,14.3l4.8-2.8C97.3,103.5,93,98,88,95.1
				C84.2,93,80.8,92.7,78.3,94.2z"/>
			<path class="st5" d="M93,130.4l4.6-2.7c2.5-1.4,4-4.5,4-8.9l-4.8,2.8C96.9,125.9,95.4,129,93,130.4z"/>
			<path class="st6" d="M99.7,109.5l-4.8,2.8c1.3,3,1.9,6.2,2,9.4l0,0l4.8-2.8C101.7,115.6,101,112.4,99.7,109.5z"/>
			<path class="st7" d="M80,102.1v13.6c-0.3-0.3-0.6-0.5-0.9-0.7c-1-0.6-1.9,0.2-1.9,1.8c0,1.5,0.7,3,1.9,3.9c1,0.6,2.3,0,2.3-1.6
				v-12.5l6,3.5v9.8c-0.3-0.3-0.6-0.5-0.9-0.7c-1-0.6-1.5,0.4-1.5,2c0,1.6,0.7,3,1.9,4c1,0.6,1.9-0.2,1.9-1.8l0,0v-16.3L80,102.1z"
				/>
		</g>
		<g id="freepik--Image--inject-1--inject-68">
			<path class="st2" d="M416.9,212.3c-2.5-1.4-5.9-1.2-9.7,1c-7.6,4.4-13.7,15-13.7,23.7c0,4.4,1.5,7.4,4,8.9l4.8,2.8
				c2.5,1.4,5.9,1.2,9.7-1c7.6-4.4,13.7-15,13.7-23.7c0-4.4-1.5-7.4-4-8.9"/>
			<path class="st2" d="M412,216.1c-7.6,4.4-13.7,15-13.7,23.7s6.1,12.3,13.7,7.9s13.7-15,13.7-23.7S419.6,211.8,412,216.1z"/>
			<path class="st3" d="M416.9,212.3l4.9,2.8c-2.5-1.4-5.9-1.2-9.7,1c-5,2.9-9.3,8.4-11.7,14.3l-4.9-2.8c2.4-5.9,6.8-11.5,11.7-14.3
				C411,211.1,414.4,210.9,416.9,212.3z"/>
			<path class="st5" d="M402.2,248.6l-4.6-2.7c-2.5-1.4-4-4.5-4-8.9l4.9,2.8C398.3,244.1,399.8,247.1,402.2,248.6z"/>
			<path class="st6" d="M395.5,227.6l4.9,2.8c-1.3,3-1.9,6.2-2,9.4l0,0l-4.9-2.8C393.6,233.8,394.2,230.6,395.5,227.6z"/>
			<path class="st7" d="M405.2,227.3v17.2c0,0.5,0.4,0.7,0.8,0.5l12.1-7c0.5-0.3,0.8-0.8,0.8-1.4v-17.2c0-0.5-0.4-0.7-0.8-0.5
				l-12.1,7C405.5,226.2,405.2,226.7,405.2,227.3z M417.3,237.3l-10.5,6.1c-0.5,0.2-0.8,0-0.8-0.5V228c0-0.6,0.3-1.1,0.8-1.4
				l10.5-6.1c0.5-0.3,0.8-0.1,0.8,0.5v14.9C418.1,236.4,417.8,236.9,417.3,237.3L417.3,237.3z"/>
			<polygon class="st7" points="406,243.8 406,239 409.8,231.6 413.8,236 412.9,233.9 414.5,230.9 418.1,233.4 418.1,236.8 			"/>
			<path class="st7" d="M415.1,224.9c0.5-0.3,0.9,0.1,0.9,0.9c0,0.7-0.3,1.4-0.9,1.9c-0.5,0.3-0.9-0.1-0.9-0.9
				C414.2,226.1,414.5,225.4,415.1,224.9z"/>
		</g>
		<g id="freepik--speach-bubble--inject-1--inject-68">
			<path class="st2" d="M169.5,74.7l-2.7-5.1l2.2-6.3v-3.9l-6.7,3.8v3.8l2.9,5c0,0.1,0.1,0.1,0.2,0.2l0,0L169.5,74.7z"/>
			<path class="st5" d="M169.5,74.7l-2.7-5.1l2.2-6.3v-3.9l-6.7,3.8v3.8l2.9,5c0,0.1,0.1,0.1,0.2,0.2l0,0L169.5,74.7z"/>
			<path class="st2" d="M198.1,29.5c-0.1-1.4-0.8-2.7-2-3.5l-1.6-0.9c-1.3-0.6-2.7-0.6-4,0l-37.7,21.8c-1.2,0.8-1.9,2.1-2,3.5v19.5
				c0.1,1.4,0.8,2.7,2,3.5l1.6,0.9c1.3,0.6,2.7,0.6,4,0l8-4.6l2.9,5c0.1,0.2,0.4,0.3,0.6,0.2c0.1-0.1,0.2-0.1,0.2-0.2l3-8.7l23-13.3
				c1.2-0.8,1.9-2.1,2-3.5L198.1,29.5z"/>
			<path class="st5" d="M150.8,69.9c0.1,1.4,0.8,2.7,2,3.5l1.6,0.9c1.1,0.6,2.5,0.6,3.6,0.2c-0.9,0.3-1.7-0.2-1.7-1.3V53.6
				c0-0.7,0.2-1.4,0.6-2l-5.6-3.2c-0.4,0.6-0.6,1.3-0.6,2V69.9z"/>
			<path class="st8" d="M198.1,29c-0.2-0.9-1-1.1-1.9-0.6l-37.7,21.8c-0.6,0.3-1.1,0.8-1.4,1.5l-5.6-3.2c0.3-0.6,0.8-1.1,1.4-1.5
				l37.7-21.8c1.3-0.6,2.7-0.6,4,0l1.6,0.9C197.1,26.7,197.9,27.8,198.1,29z"/>
			<path class="st7" d="M167.5,53.9c-1.6,1-2.6,2.7-2.7,4.6c0,1.7,1.2,2.4,2.7,1.5c1.6-1,2.6-2.7,2.7-4.6
				C170.1,53.8,168.9,53.1,167.5,53.9z"/>
			<path class="st7" d="M177.3,48.2c-1.6,1-2.6,2.7-2.7,4.6c0,1.7,1.2,2.4,2.7,1.5c1.6-1,2.6-2.7,2.7-4.6
				C180,48.1,178.8,47.4,177.3,48.2z"/>
			<path class="st7" d="M187.1,42.5c-1.6,1-2.6,2.7-2.7,4.6c0,1.7,1.2,2.4,2.7,1.5c1.6-1,2.6-2.7,2.7-4.6
				C189.8,42.4,188.6,41.7,187.1,42.5z"/>
		</g>
		<g id="freepik--Letter--inject-1--inject-68">
			<path class="st2" d="M352.6,141.2l17.3-10c0.4-0.3,0.6-0.7,0.6-1.1v-15.6c0-0.4-0.3-0.6-0.6-0.4l-17.3,10
				c-0.4,0.3-0.6,0.7-0.6,1.1v15.6C352,141.2,352.3,141.4,352.6,141.2z"/>
			<path class="st7" d="M352,140.8v-0.3l7.2-11.9l-7.1-3.9c0,0,0-0.1,0-0.1l8.8,3.7c0.2,0.1,0.4-0.1,0.6-0.4l8.8-13.8c0,0,0,0,0,0
				l-7,12.1l7.1,3.6v0.3c0,0.2-0.1,0.5-0.2,0.7l-7.3-4l-1,1.8c-0.4,0.7-1,1-1.4,0.8l-1-0.6l-7.3,12.4
				C352.1,141.1,352,140.9,352,140.8z"/>
		</g>
		<g id="freepik--Money--inject-1--inject-68">
			<path class="st2" d="M156,204.9c0.5,0.6,1,1.2,1.4,1.8c0.4,0.7,0.8,1.4,1.1,2.1c0.3,0.7,0.5,1.4,0.7,2.1c0.2,0.6,0.3,1.2,0.3,1.9
				c0,0.1,0,0.3-0.1,0.4c-0.1,0.1-0.2,0.1-0.3,0.1l-2.3-1.3c-0.2-0.1-0.3-0.2-0.4-0.4c-0.1-0.2-0.2-0.4-0.3-0.6l-0.2-0.4
				c-0.1-0.2-0.2-0.4-0.3-0.6c-0.2-0.3-0.3-0.5-0.5-0.7c-0.2-0.2-0.5-0.5-0.8-0.6c-0.2-0.1-0.4-0.2-0.6-0.3
				c-0.2-0.1-0.4-0.1-0.6-0.1c-0.2,0-0.3,0.1-0.4,0.3c-0.1,0.2-0.2,0.5-0.1,0.7c0,0.3,0.1,0.6,0.2,0.9c0.1,0.3,0.3,0.6,0.6,0.9
				c0.3,0.4,0.6,0.8,1,1.1c0.4,0.4,1,0.9,1.6,1.5c0.6,0.6,1.2,1.2,1.7,1.9c0.5,0.6,0.9,1.3,1.2,2c0.3,0.7,0.6,1.5,0.7,2.3
				c0.2,0.9,0.2,1.8,0.2,2.7c0,0.8-0.1,1.5-0.3,2.3c-0.2,0.5-0.4,1.1-0.8,1.5c-0.3,0.4-0.8,0.6-1.2,0.7c-0.5,0.1-1.1,0.1-1.6-0.1
				v2.2c0,0.2,0,0.4-0.1,0.5c-0.1,0.1-0.2,0.1-0.3,0.1c0,0,0,0,0,0l-2.3-1.3c-0.2-0.1-0.3-0.3-0.3-0.4c-0.1-0.2-0.1-0.4-0.1-0.7
				v-2.3c-0.6-0.6-1.1-1.2-1.5-1.8c-0.4-0.7-0.8-1.4-1.2-2.1c-0.3-0.7-0.6-1.5-0.8-2.2c-0.2-0.7-0.3-1.4-0.3-2.1
				c0-0.1,0-0.3,0.1-0.4c0.1-0.1,0.2-0.1,0.3-0.1l2.3,1.3c0.1,0.1,0.3,0.2,0.4,0.3c0.1,0.2,0.2,0.3,0.3,0.5c0,0.1,0.1,0.3,0.2,0.5
				c0.1,0.3,0.2,0.5,0.4,0.8c0.2,0.3,0.4,0.6,0.6,0.9c0.2,0.3,0.6,0.5,0.9,0.7c0.5,0.3,1,0.5,1.6,0.5c0.4,0,0.6-0.3,0.6-0.9
				c0-0.3-0.1-0.6-0.2-0.9c-0.2-0.4-0.4-0.7-0.7-1c-0.3-0.4-0.7-0.8-1.2-1.2s-1-1-1.7-1.6c-1.2-1.1-2.1-2.4-2.7-3.9
				c-0.6-1.5-0.9-3.2-0.8-4.8c0-0.7,0.1-1.3,0.2-2c0.1-0.5,0.4-1,0.7-1.5c0.3-0.4,0.6-0.7,1.1-0.9c0.4-0.2,0.9-0.2,1.4-0.2v-2.3
				c0-0.2,0-0.4,0.1-0.5c0.1-0.1,0.2-0.1,0.3-0.1l2.3,1.3c0.2,0.1,0.3,0.3,0.3,0.4c0.1,0.2,0.1,0.4,0.1,0.7L156,204.9z"/>
		</g>
		<g id="freepik--Pin--inject-1--inject-68">
			<path class="st2" d="M262.6,42.8l-3.2-1.8l0,0c-1.5-1-3.6-1-6,0.4c-4.6,2.7-8.4,9.5-8.4,15.1v1.3c0,5.7,7.6,11.9,7.6,11.9
				l3.1,1.8c0,0-1.9-2.1-1.7-2.6c2-4.2,7.6-16.1,7.6-20.7v-1.3c0-0.9-0.1-1.9-0.4-2.8l0.4,0.2L262.6,42.8z M253.5,55.8
				c-2.3,1.3-4.2,0.2-4.2-2.4c1.2-0.2,4.4-5.5,4.2-7.2c2.3-1.3,4.2-0.2,4.2,2.4C257.5,51.5,256,54.2,253.5,55.8L253.5,55.8z"/>
			<g class="st9">
				<path d="M262.6,42.8l-3.2-1.8l0,0c-1.5-1-3.6-1-6,0.4c-4.6,2.7-8.4,9.5-8.4,15.1v1.3c0,5.7,7.6,11.9,7.6,11.9l3.1,1.8
					c0,0-1.9-2.1-1.7-2.6c2-4.2,7.6-16.1,7.6-20.7v-1.3c0-0.9-0.1-1.9-0.4-2.8l0.4,0.2L262.6,42.8z M253.5,55.8
					c-2.3,1.3-4.2,0.2-4.2-2.4c1.2-0.2,4.4-5.5,4.2-7.2c2.3-1.3,4.2-0.2,4.2,2.4C257.5,51.5,256,54.2,253.5,55.8L253.5,55.8z"/>
			</g>
			<path class="st2" d="M265.2,48.8c0-5.7-3.8-8.1-8.4-5.5s-8.4,9.5-8.4,15.1v1.3c0,4.4,5,9.5,7.2,11.6c0.5,0.4,1.2,0.4,1.6-0.1
				c0.1-0.1,0.1-0.2,0.2-0.3c2-4,7.7-16.2,7.7-20.9V48.8z M256.8,57.8c-2.3,1.3-4.2,0.3-4.2-2.4c0.2-2.9,1.7-5.6,4.2-7.2
				c2.3-1.3,4.2-0.3,4.2,2.4C260.9,53.5,259.3,56.2,256.8,57.8L256.8,57.8z"/>
		</g>
	</g>
	<g id="freepik--Lines--inject-1--inject-68" class="st10">
		<path class="st2" d="M411.2,107.6c-0.1,0-0.2,0-0.2-0.1l-61.8-50.3c-0.2-0.1-0.2-0.4-0.1-0.5s0.4-0.2,0.5-0.1l61.8,50.3
			c0.2,0.1,0.2,0.4,0.1,0.5C411.4,107.5,411.3,107.6,411.2,107.6L411.2,107.6z"/>
		<path class="st2" d="M410.2,214.4L410.2,214.4c-0.2,0-0.4-0.2-0.4-0.4l3.6-78.3c0-0.2,0.2-0.4,0.4-0.4c0.2,0,0.4,0.2,0.4,0.4
			l-3.6,78.3C410.5,214.2,410.4,214.4,410.2,214.4z"/>
		<path class="st2" d="M404.6,219.2c-0.1,0-0.3-0.1-0.3-0.2l-40.9-77c-0.1-0.2,0-0.4,0.2-0.5c0.2-0.1,0.4,0,0.5,0.1l40.9,77
			c0.1,0.2,0,0.4-0.1,0.5c0,0,0,0,0,0C404.7,219.2,404.7,219.2,404.6,219.2z"/>
		<path class="st2" d="M373.4,122.3c-0.2,0-0.3-0.1-0.4-0.3c0-0.2,0.1-0.4,0.3-0.4l30.7-6.1c0.2,0,0.4,0.1,0.4,0.3c0,0,0,0,0,0
			c0,0.2-0.1,0.4-0.3,0.4l-30.6,6.1L373.4,122.3z"/>
		<path class="st2" d="M357.6,116.8c-0.1,0-0.3-0.1-0.3-0.2l-20.1-46.1c-0.1-0.2,0-0.4,0.2-0.5c0,0,0,0,0,0c0.2-0.1,0.4,0,0.5,0.2
			c0,0,0,0,0,0l20.1,46.1c0.1,0.2,0,0.4-0.2,0.5c0,0,0,0,0,0C357.7,116.8,357.7,116.8,357.6,116.8z"/>
		<path class="st2" d="M265.4,56.2c-0.2,0-0.3-0.1-0.4-0.3c0-0.2,0.1-0.4,0.3-0.4c0,0,0,0,0,0L331,44.7c0.2,0,0.4,0.1,0.4,0.3
			c0,0.2-0.1,0.4-0.3,0.4c0,0,0,0,0,0L265.4,56.2L265.4,56.2z"/>
		<path class="st2" d="M352.8,119.8c-0.1,0-0.1,0-0.2-0.1l-88.1-56.5c-0.2-0.1-0.2-0.3-0.1-0.5c0.1-0.2,0.3-0.2,0.5-0.1l0,0l88,56.5
			c0.2,0.1,0.2,0.3,0.1,0.5C353,119.8,352.9,119.8,352.8,119.8L352.8,119.8z"/>
		<path class="st2" d="M352.5,202.2L352.5,202.2c-0.2,0-0.4-0.2-0.3-0.4l6.8-60c0-0.2,0.2-0.4,0.4-0.3c0,0,0,0,0,0
			c0.2,0,0.3,0.2,0.3,0.4c0,0,0,0,0,0l-6.8,60C352.9,202,352.7,202.2,352.5,202.2C352.5,202.2,352.5,202.2,352.5,202.2z"/>
		<path class="st2" d="M312.2,287.9c-0.1,0-0.3-0.1-0.3-0.2c-0.1-0.2,0-0.4,0.1-0.5c0,0,0,0,0,0l84-48.9c0.2-0.1,0.4,0,0.5,0.1
			c0,0,0,0,0,0c0.1,0.2,0,0.4-0.1,0.5c0,0,0,0,0,0l-84,48.9C312.3,287.9,312.3,287.9,312.2,287.9z"/>
		<path class="st2" d="M397.8,229.4h-0.1l-39.4-11.5c-0.2-0.1-0.3-0.3-0.2-0.5c0.1-0.2,0.3-0.3,0.5-0.3c0,0,0,0,0,0l39.4,11.5
			c0.2,0.1,0.3,0.3,0.3,0.5C398.1,229.3,398,229.4,397.8,229.4z"/>
		<path class="st2" d="M311.2,273.7c-0.1,0-0.2,0-0.2-0.1c-0.2-0.1-0.2-0.4-0.1-0.5l29.8-40c0.1-0.2,0.4-0.2,0.5-0.1c0,0,0,0,0,0
			c0.2,0.1,0.2,0.4,0.1,0.5l-29.8,40C311.5,273.6,311.4,273.7,311.2,273.7z"/>
		<path class="st2" d="M195.5,269.8c-0.1,0-0.2-0.1-0.3-0.1l-32.9-42.1c-0.1-0.2-0.1-0.4,0.1-0.5s0.4-0.1,0.5,0.1l32.9,42.1
			c0.1,0.2,0.1,0.4-0.1,0.5C195.7,269.8,195.6,269.8,195.5,269.8L195.5,269.8z"/>
		<path class="st2" d="M106.5,228.8c-0.1,0-0.3-0.1-0.3-0.2c-0.1-0.2,0-0.4,0.2-0.5c0,0,0,0,0,0l35.6-14.2c0.2-0.1,0.4,0.1,0.5,0.3
			c0,0.2,0,0.3-0.2,0.4l-35.6,14.2L106.5,228.8z"/>
		<path class="st2" d="M151.5,194.7c-0.2,0-0.3-0.1-0.4-0.3l-10.9-44.7c-0.1-0.2,0.1-0.4,0.3-0.4c0,0,0,0,0,0c0.2,0,0.4,0.1,0.4,0.3
			l10.9,44.7C151.9,194.4,151.8,194.6,151.5,194.7C151.6,194.7,151.6,194.7,151.5,194.7L151.5,194.7z"/>
		<path class="st2" d="M96.2,211.2c-0.1,0-0.1,0-0.2,0c-0.2-0.1-0.3-0.3-0.2-0.5c0,0,0,0,0,0l34-67.8c0.1-0.2,0.3-0.3,0.5-0.2
			c0.2,0.1,0.3,0.3,0.2,0.5l-34,67.7C96.4,211.1,96.3,211.2,96.2,211.2z"/>
		<path class="st2" d="M91.4,208.8c-0.2,0-0.4-0.1-0.4-0.3l-7.8-81c0-0.2,0.1-0.4,0.3-0.4c0,0,0,0,0,0c0.2,0,0.4,0.1,0.4,0.3
			c0,0,0,0,0,0l7.8,81C91.8,208.6,91.6,208.8,91.4,208.8C91.4,208.8,91.4,208.8,91.4,208.8L91.4,208.8z"/>
		<path class="st2" d="M186.9,287c-0.1,0-0.1,0-0.2,0l-81.8-47.2c-0.2-0.1-0.2-0.3-0.1-0.5c0.1-0.2,0.3-0.2,0.5-0.1l81.8,47.2
			c0.2,0.1,0.2,0.3,0.1,0.5C187.2,286.9,187,287,186.9,287z"/>
		<path class="st2" d="M139.7,126.1c0,0-0.1,0-0.1,0c-0.2-0.1-0.3-0.3-0.2-0.5l21.8-49.8c0.1-0.2,0.3-0.3,0.5-0.2c0,0,0,0,0,0
			c0.2,0.1,0.3,0.3,0.2,0.5c0,0,0,0,0,0l-21.8,49.8C140,126,139.9,126.1,139.7,126.1z"/>
		<path class="st2" d="M243.5,55.7L243.5,55.7l-41.4-10.2c-0.2,0-0.3-0.2-0.3-0.5c0.1-0.2,0.3-0.3,0.5-0.3L243.6,55
			c0.2,0,0.3,0.2,0.3,0.5C243.9,55.6,243.7,55.7,243.5,55.7z"/>
		<path class="st2" d="M92,103.5c-0.1,0-0.2-0.1-0.3-0.2c-0.1-0.2-0.1-0.4,0.1-0.5l55.6-40.2c0.2-0.1,0.4-0.1,0.5,0.1
			c0.1,0.2,0.1,0.4-0.1,0.5c0,0,0,0,0,0l-55.5,40.2C92.2,103.5,92.1,103.6,92,103.5z"/>
		<path class="st2" d="M125.2,127c0,0-0.1,0-0.2,0l-25.9-12.2c-0.2-0.1-0.2-0.3-0.1-0.5c0.1-0.2,0.3-0.2,0.5-0.2l25.9,12.1
			c0.2,0.1,0.3,0.3,0.2,0.5c0,0,0,0,0,0C125.5,126.9,125.4,127,125.2,127z"/>
		<path class="st2" d="M146.1,131.9c-0.1,0-0.2-0.1-0.3-0.2c-0.1-0.2-0.1-0.4,0.1-0.5c0,0,0,0,0,0l94-67.1c0.2-0.1,0.4-0.1,0.5,0.1
			c0.1,0.2,0.1,0.4-0.1,0.5l-94,67.1C146.2,131.8,146.2,131.9,146.1,131.9z"/>
		<path class="st2" d="M286.4,286.8L286.4,286.8l-77.2,0c-0.2,0-0.4-0.2-0.4-0.4c0-0.2,0.2-0.4,0.4-0.4l0,0l0,0l77.2,0.1
			c0.2,0,0.4,0.1,0.4,0.3c0,0.2-0.1,0.4-0.3,0.4C286.5,286.8,286.5,286.8,286.4,286.8z"/>
	</g>
</g>
<g id="freepik--Plants--inject-1--inject-68" class="st11">
	<g id="freepik--plants--inject-1--inject-68" class="st12">
		<path class="st2" d="M61.6,378.6c-0.5-3.4-1.6-6.6-3.3-9.6c-2.7-4.2-6.4-6.8-9.8-7s-6.2,2.9-2.5,5s10.2,4.4,13.2,12.5L61.6,378.6z
			"/>
		<path class="st6" d="M61.6,378.6c-0.5-3.4-1.6-6.6-3.3-9.6c-2.7-4.2-6.4-6.8-9.8-7s-6.2,2.9-2.5,5s10.2,4.4,13.2,12.5L61.6,378.6z
			"/>
		<path class="st7" d="M60.6,377.2L60.6,377.2c0.1,0,0.1-0.1,0.1-0.2c-3.6-8.9-10.5-12.6-13.7-13.4c-0.1,0-0.2,0-0.2,0.1
			c0,0,0,0,0,0c0,0.1,0,0.2,0.1,0.2c0,0,0,0,0,0c3.1,0.7,9.8,4.4,13.4,13.1C60.4,377.2,60.5,377.3,60.6,377.2z"/>
		<path class="st2" d="M42.3,377.3c0.4,0.7,1,1.1,1.8,1.4c0.8,0.2,1.4,0.6,1.9,1.3c0.8,1.3-0.5,3.2,0.3,4.5c0.4,0.5,1,0.9,1.6,1
			c0.5,0.1,1.1,0.1,1.6,0.1c0.3,0,0.5,0,0.8-0.1c0.7-0.2,1.5-0.1,2.2,0.2c1.1,0.6,1.4,1.9,2,3c0.8,1.2,2.1,2.1,3.6,2.2
			c0.6,0.1,1.3,0.1,1.8-0.1l0.1-0.1l0,0l0.2-0.2l0,0c0.1-0.7,0-1.4-0.1-2.1v-0.1c0-0.8,0.1-1.7,0.1-2.5c0-1.5,0-3.1,0-4.6
			c0.1-1,0-2-0.3-3c-0.5-1-1.6-1-2.1-2.1c-0.2-0.4-0.3-0.8-0.4-1.2c-0.5-1.2-1.7-2-3-2.1c-2-0.1-3.8,1.5-5.9,1.4
			c-0.5,0-1-0.2-1.5-0.3c-1.7-0.4-3.4,0.2-4.5,1.5C42.2,376,42.1,376.7,42.3,377.3z"/>
		<path class="st7" d="M60.5,387.3L60.5,387.3c0.1,0,0.2-0.1,0.1-0.2c0,0,0,0,0,0c-2.8-10.5-13.8-12-16.4-11.8
			c-0.1,0-0.2,0.1-0.2,0.2c0,0.1,0.1,0.2,0.2,0.2c0,0,0,0,0,0c2.5-0.2,13.3,1.3,16.1,11.5C60.3,387.3,60.3,387.3,60.5,387.3
			C60.5,387.3,60.5,387.3,60.5,387.3z"/>
		<path class="st7" d="M48.2,382C48.2,382,48.3,382,48.2,382c2.2-1.8,4.9-2.6,7.6-2.2c0.1,0,0.2,0,0.2-0.1c0,0,0,0,0,0
			c0-0.1,0-0.2-0.1-0.2c0,0,0,0,0,0c-2.8-0.5-5.7,0.3-7.8,2.2c-0.1,0.1-0.1,0.2,0,0.2c0,0,0,0,0,0C48,382,48.1,382,48.2,382z"/>
	</g>
	<g id="freepik--plants--inject-1--inject-68_00000147185842740059767580000018181302612981164430_" class="st12">
		<path class="st2" d="M265.6,407.6c0.7-4.1,2.2-8,4.4-11.5c3.4-5,8-8,12.2-8.2s7.5,3.8,2.9,6.3s-12.6,4.9-16.6,14.7L265.6,407.6z"
			/>
		<path class="st13" d="M265.6,407.6c0.7-4.1,2.2-8,4.4-11.5c3.4-5,8-8,12.2-8.2s7.5,3.8,2.9,6.3s-12.6,4.9-16.6,14.7L265.6,407.6z"
			/>
		<path class="st7" d="M266.9,405.9L266.9,405.9c-0.1,0-0.2-0.2-0.1-0.3c4.8-10.7,13.3-15,17.2-15.8c0.1,0,0.2,0,0.3,0.2
			c0,0,0,0,0,0c0,0.1,0,0.2-0.2,0.3c-3.8,0.7-12.2,4.9-16.9,15.5C267.2,405.9,267,406,266.9,405.9z"/>
		<path class="st2" d="M266.8,415c0.3-1,0.4-2.1,0.3-3.2c-0.3-1.1-0.4-2.3-0.5-3.5c0.2-1,0.8-1.8,1.6-2.4c0.8-0.4,1.6-1,2.3-1.6
			c0.5-0.8,0.8-1.8,1-2.7c0.4-1,1.2-1.8,2.1-2.2c1-0.4,2.1-0.5,3.1-0.1c0.9,0.4,1.7,1,2.5,1.6c0.8,0.6,1.8,1,2.8,1
			c1.1,0,2.2,0,3.3,0.2c1.9,0.3,4.1,1.3,4.5,3.4c0.1,0.5,0,1-0.2,1.5v0.1c-0.8,1.3-2.5,1.3-3.7,1.8c-0.3,0.1-0.9,0.3-1,0.7
			s0.1,0.9,0.2,1.3c0.6,2.1,0.7,4.8-2.2,5.2c-1.1,0-2.2-0.1-3.2-0.5c-1.1-0.3-2.2-0.1-3.1,0.6c-0.4,0.5-0.7,1.1-0.9,1.7
			c-0.7,1.2-1.8,2.2-3.1,2.7c-1.3,0.4-2.7,0.6-4.1,0.5C265.3,420.7,266.2,417,266.8,415z"/>
		<path class="st7" d="M266.7,418.2L266.7,418.2c-0.1,0-0.2-0.2-0.1-0.3c3.8-12.7,17.4-14.1,20.5-13.8c0.1,0,0.2,0.1,0.2,0.2
			c0,0.1-0.1,0.2-0.2,0.2c0,0,0,0,0,0c-3.1-0.3-16.3,1.1-20,13.5C267,418.2,266.9,418.3,266.7,418.2
			C266.8,418.3,266.7,418.3,266.7,418.2z"/>
		<path class="st7" d="M281.9,412.3c0,0-0.1,0-0.1-0.1c-2.4-2.3-5.8-3.3-9.1-2.9c-0.1,0-0.2-0.1-0.2-0.2c0-0.1,0.1-0.2,0.2-0.2
			c3.4-0.5,6.9,0.6,9.4,3c0.1,0.1,0.1,0.2,0,0.3C282.1,412.3,282,412.3,281.9,412.3z"/>
	</g>
	<g id="freepik--plants--inject-1--inject-68_00000078012499638091853580000013140240694653894016_" class="st12">
		<path class="st2" d="M231.5,408.7c-0.1-4.8-1.5-9.4-4-13.5c-3.4-5.5-7.8-9.2-11.4-8c-3.4,1.1-2.6,5.7,2.6,10.6
			c3.6,3.5,7.3,7.9,9.1,13l3,6.5L231.5,408.7z"/>
		<path class="st2" d="M231.5,408.7c-0.1-4.8-1.5-9.4-4-13.5c-3.4-5.5-7.8-9.2-11.4-8c-3.4,1.1-2.6,5.7,2.6,10.6
			c3.6,3.5,7.3,7.9,9.1,13l3,6.5L231.5,408.7z"/>
		<g class="st14">
			<path d="M231.5,408.7c-0.1-4.8-1.5-9.4-4-13.5c-3.4-5.5-7.8-9.2-11.4-8c-3.4,1.1-2.6,5.7,2.6,10.6c3.6,3.5,7.3,7.9,9.1,13l3,6.5
				L231.5,408.7z"/>
		</g>
		<path class="st7" d="M231,411c-0.1,0-0.2-0.1-0.2-0.2c-2.3-8.9-8-18.2-13.2-21.6c-0.1-0.1-0.1-0.2-0.1-0.3c0,0,0,0,0,0
			c0.1-0.1,0.2-0.1,0.3-0.1c0,0,0,0,0,0c5.3,3.5,11.1,12.9,13.4,21.9C231.3,410.8,231.2,411,231,411C231.1,411,231.1,411,231,411
			L231,411z"/>
		<path class="st2" d="M231.7,418.8c-1.7,1.5-3.8,2.6-6,3.1c-3.9,0.9-5.7-0.8-5.7-0.8s1.3-3.8,3.4-5c-2.4,0.7-4.6,1.8-6.6,3.3
			c0,0-2.4,0.2-3.6-3.4c0,0,1.3-2.3,5.9-3.8c-2.4-0.3-4.8,0-7,0.9c-0.3,0.1-2-4.5-2.6-6.6s0.3-2.2,2-2.8s7.4-1.3,8.6-0.4
			s1.9,4,1.9,4c0.5-1.4,0.6-2.8,0.4-4.2c1.5-0.3,3.1-0.2,4.6,0.2c0.4,0.1,1.2,3.3,0.4,5.9c1.1-1.5,1.7-3.2,1.9-5
			c2,1,3.4,2.9,3.9,5.1C233.6,411.2,234,415.8,231.7,418.8z"/>
		<path class="st7" d="M231.7,419c-0.1,0-0.2,0-0.2-0.1c-3.6-6.3-16-13.1-20.2-13.6c-0.1,0-0.2-0.1-0.2-0.2s0.1-0.2,0.2-0.2
			c0,0,0.1,0,0.1,0c4.3,0.5,16.9,7.4,20.6,13.8c0.1,0.1,0,0.2-0.1,0.3C231.8,419,231.7,419,231.7,419z"/>
	</g>
	<g id="freepik--plants--inject-1--inject-68_00000016066783486789372610000014443818306906169736_" class="st12">
		<path class="st2" d="M445.8,376.2c0.4-3.4,1.6-6.6,3.3-9.6c2.7-4.2,6.4-6.8,9.8-7s6.2,2.9,2.5,5s-10.2,4.4-13.2,12.5L445.8,376.2z
			"/>
		<path class="st6" d="M445.8,376.2c0.4-3.4,1.6-6.6,3.3-9.6c2.7-4.2,6.4-6.8,9.8-7s6.2,2.9,2.5,5s-10.2,4.4-13.2,12.5L445.8,376.2z
			"/>
		<path class="st7" d="M446.8,374.8L446.8,374.8c-0.1,0-0.1-0.1-0.1-0.2c0,0,0,0,0,0c3.6-8.9,10.5-12.6,13.6-13.4
			c0.1,0,0.2,0,0.2,0.1c0,0,0,0,0,0c0,0.1,0,0.2-0.1,0.2c0,0,0,0,0,0c-3.1,0.7-9.8,4.4-13.4,13.1C447,374.8,446.9,374.8,446.8,374.8
			C446.8,374.8,446.8,374.8,446.8,374.8z"/>
		<path class="st2" d="M465.1,374.9c-0.4,0.7-1,1.1-1.8,1.4c-0.7,0.2-1.4,0.6-1.9,1.3c-0.8,1.3,0.5,3.2-0.3,4.5
			c-0.4,0.5-1,0.9-1.6,1c-0.5,0.1-1.1,0.1-1.6,0.1c-0.3,0-0.5,0-0.8-0.1c-0.7-0.2-1.5-0.1-2.2,0.2c-1.1,0.6-1.4,1.9-2,3
			c-0.8,1.2-2.1,2.1-3.6,2.2c-0.6,0.1-1.3,0.1-1.9-0.1l-0.1-0.1l0,0c-0.1-0.1-0.1-0.2-0.2-0.2l0,0c-0.1-0.7,0-1.4,0.1-2.1v-0.1
			c0-0.8-0.1-1.7-0.1-2.5c0-1.5,0-3.1,0-4.6c-0.1-1,0-2,0.3-3c0.5-1,1.6-1,2.1-2.1c0.2-0.4,0.3-0.8,0.4-1.2c0.5-1.2,1.7-2,3-2.1
			c2-0.1,3.8,1.5,5.9,1.4c0.5-0.1,1-0.2,1.5-0.3c1.7-0.4,3.4,0.2,4.5,1.5C465.3,373.6,465.4,374.3,465.1,374.9z"/>
		<path class="st7" d="M447,384.9L447,384.9c-0.1,0-0.1-0.1-0.1-0.2c0,0,0,0,0,0c2.8-10.5,13.8-12,16.4-11.8c0.1,0,0.2,0.1,0.2,0.2
			c0,0,0,0,0,0c0,0.1-0.1,0.2-0.2,0.2c0,0,0,0,0,0c-2.5-0.2-13.3,1.3-16.1,11.5C447.2,384.8,447.1,384.9,447,384.9z"/>
		<path class="st7" d="M459.2,379.6C459.2,379.6,459.2,379.6,459.2,379.6c-2.2-1.8-4.9-2.6-7.6-2.1c-0.1,0-0.2-0.1-0.2-0.1
			c0,0,0,0,0,0c0-0.1,0-0.2,0.1-0.2c0,0,0,0,0,0c2.8-0.5,5.7,0.3,7.8,2.2c0.1,0.1,0.1,0.2,0,0.2
			C459.4,379.6,459.3,379.6,459.2,379.6z"/>
	</g>
</g>
<g>
	<g id="freepik--Shadows--inject-1--inject-68">
		<path id="freepik--Shadow--inject-1--inject-68" class="st15" d="M269.2,426.2h-38.5c-1,0.1-1.9-0.7-2-1.7c0-0.2,0-0.5,0.1-0.7
			l0.8-3.1c0.4-1.4,1.7-2.4,3.1-2.4h34.5c1.4,0.1,2.7,1,3.1,2.4l0.8,3.1c0.3,1-0.2,2-1.2,2.3C269.7,426.2,269.5,426.2,269.2,426.2z"
			/>
		<ellipse id="freepik--shadow--inject-1--inject-68" class="st15" cx="437.5" cy="391" rx="22" ry="12.7"/>
		
			<ellipse id="freepik--shadow--inject-1--inject-68_00000081623717145680232760000016624975464405884329_" class="st15" cx="70.9" cy="392.4" rx="22" ry="12.7"/>
		<path id="freepik--shadow--inject-1--inject-68_00000121979335550616761650000008562826961867255952_" class="st15" d="
			M147.9,384.2l-19.2,11.1c-0.7,0.3-1.5,0.3-2.2,0l-56.8-32.7c-0.3-0.1-0.5-0.5-0.4-0.8c0.1-0.2,0.2-0.4,0.4-0.4L89,350.2
			c0.7-0.3,1.5-0.3,2.2,0l56.8,32.7c0.3,0.1,0.5,0.5,0.4,0.9C148.2,384,148.1,384.1,147.9,384.2z"/>
		<path id="freepik--shadow--inject-1--inject-68_00000134213322463528853700000010712048909589738128_" class="st15" d="
			M434.5,351.3l-55.8,32.2c-0.6,0.3-1.3,0.3-1.9,0l-46.9-27c-0.5-0.3-0.5-0.8,0-1.1l55.8-32.2c0.6-0.3,1.3-0.3,1.9,0l46.9,27
			c0.3,0.1,0.5,0.4,0.3,0.7C434.8,351.1,434.7,351.2,434.5,351.3z"/>
		<path id="freepik--shadow--inject-1--inject-68_00000098186091659189004660000000944972559780946101_" class="st15" d="
			M168.4,375.3l13.1-7.6c0.3-0.1,0.5-0.3,0.4-0.6c0-0.2-0.2-0.4-0.4-0.4L109.2,325c-0.5-0.3-1.1-0.3-1.7,0l-13.1,7.6
			c-0.5,0.3-0.5,0.7,0,1l72.3,41.7C167.3,375.6,167.9,375.6,168.4,375.3z"/>
	</g>
	<g id="freepik--Devices--inject-1--inject-68">
		<g id="freepik--Laptop--inject-1--inject-68">
			<path class="st16" d="M333.5,353.9c0.1,0.9,0.6,1.7,1.3,2.2l37.7,21.8c0.8,0.4,1.8,0.4,2.7,0l51.5-29.8c1.2-0.7,1.7-2.2,1-3.4
				c-0.2-0.4-0.6-0.8-1-1l-37.7-21.8c-0.8-0.4-1.8-0.4-2.7,0l-51.5,29.8C334,352.1,333.5,352.9,333.5,353.9z"/>
			<path class="st17" d="M373.8,375.2v2.9c-0.5,0-0.9-0.1-1.3-0.3l-37.7-21.8c-1.2-0.7-1.7-2.2-1-3.4c0.2-0.4,0.5-0.7,0.9-1
				c-0.6,0.4-0.6,1.1,0.1,1.5l37.7,21.8C372.9,375.1,373.4,375.2,373.8,375.2z"/>
			<path class="st1" d="M332.2,351.7c-0.8-0.5-1.2-1.4-1.3-2.3v-45c0.1-0.9,0.6-1.8,1.3-2.3l51.5-29.8c1.2-0.7,2.7-0.4,3.5,0.8
				c0.3,0.4,0.4,0.9,0.4,1.4v45c-0.1,0.9-0.6,1.8-1.3,2.3l-51.5,29.8C334,352,333,352.1,332.2,351.7z"/>
			<path class="st17" d="M334.7,351.7c-1.2,0.7-2.7,0.2-3.4-1c-0.2-0.4-0.3-0.9-0.3-1.3v-45c0-0.5,0.2-0.9,0.4-1.3l2.5,1.5l0,0
				c-0.2,0.4-0.4,0.9-0.4,1.3v45C333.5,351.6,334,352,334.7,351.7z"/>
			<path class="st16" d="M333.5,305.9v45c0,0.9,0.6,1.2,1.3,0.8l51.5-29.8c0.8-0.5,1.3-1.4,1.3-2.3v-45c0-0.9-0.6-1.2-1.3-0.8
				l-51.5,29.8C334,304.1,333.5,304.9,333.5,305.9z"/>
			<path class="st1" d="M334.8,353.2l37.7,21.7c0.8,0.4,1.8,0.4,2.7,0l51.5-29.8c0.4-0.2,0.7-0.6,0.5-1.1c-0.1-0.2-0.3-0.4-0.5-0.5
				l-37.7-21.8c-0.8-0.4-1.8-0.4-2.7,0l-51.5,29.8c-0.4,0.2-0.7,0.6-0.5,1.1C334.4,352.9,334.6,353.1,334.8,353.2z"/>
			<path class="st2" d="M335.5,306l49.7-28.7c0.5-0.2,0.8,0,0.8,0.5v38.9c0,0.6-0.3,1.1-0.8,1.4l-49.7,28.7c-0.5,0.2-0.8,0-0.8-0.5
				v-38.9C334.8,306.9,335.1,306.4,335.5,306z"/>
			<path class="st7" d="M367.7,298.6l-0.1-0.1l0,0c-1.9-1.4-4.4-1.4-7.1,0.2c-2.9,1.9-5.3,4.5-6.9,7.6l-0.2,0.3l-0.1,0.1
				c-1.9,3.5-2.9,7.3-3,11.2c0,3.6,1,6.4,3,7.8s4.4,1.4,7.1-0.2c3.1-2,5.5-4.8,7.1-8.1c1.9-3.4,2.9-7.3,3-11.2
				C370.5,302.8,369.5,300,367.7,298.6z M362,324.2c-0.4,0.3-0.7,0.5-1.1,0.8l-0.5,0.3l-0.5,0.2c-0.4,0.2-0.7,0.3-1.1,0.5
				c-4.7,1.7-8.2-1.6-8.3-8.1v-0.3c0.1-3.9,1.2-7.6,3-11l0.2-0.3c1.3-2.4,3-4.6,5.2-6.4c0.4-0.3,0.7-0.5,1.1-0.8l0.5-0.3l0.5-0.2
				c0.4-0.2,0.7-0.3,1.1-0.5c1.8-0.8,3.8-0.6,5.4,0.6c0.1,0,0.1,0.1,0.2,0.1c1.7,1.4,2.7,3.9,2.8,7.4v0.3
				C370.2,313,366.6,320.5,362,324.2z"/>
			<path class="st7" d="M360.4,326.2c-2.8,1.6-5.5,1.7-7.5,0.2s-3.1-4.4-3.1-8.2c0.1-4.1,1.2-8.1,3.1-11.7l0.1-0.2l0.2-0.3
				c1.6-3.3,4.1-6,7.2-8c2.8-1.6,5.5-1.7,7.4-0.2l0,0l0.1,0.1l0,0c1.9,1.5,3,4.4,3,8.1c-0.1,4.1-1.2,8.1-3.1,11.7
				C366.2,321.1,363.6,324.1,360.4,326.2z M360.4,299.5l-0.4,0.3c-0.4,0.2-0.7,0.5-1.1,0.8c-2,1.7-3.7,3.8-4.9,6.1l-0.1,0.3
				c-1.7,3.2-2.7,6.8-2.8,10.5v0.3c0,6.1,3.4,9.3,7.9,7.7c0.4-0.1,0.7-0.3,1.1-0.5c0.3-0.1,0.6-0.3,0.9-0.5s0.7-0.5,1.1-0.8l0,0
				c4.5-3.6,7.9-10.7,7.9-16.8v-0.3c0-3.2-1-5.7-2.6-7l-0.1-0.1c-1.5-1.1-3.4-1.3-5.1-0.5c-0.4,0.1-0.7,0.3-1.1,0.5L360.4,299.5z"/>
			<path class="st7" d="M367.8,298.2l-0.1-0.1l0,0l-0.2-0.1l-0.2,0.3l-0.2,0.3c-0.5,1-1.2,2-1.8,2.9c-0.1,0.1-0.1,0.2-0.2,0.2
				c-0.9,1.1-1.8,2.1-2.9,3l-0.2,0.2c-0.5,0.4-0.9,0.7-1.4,1c-0.6,0.3-1.2,0.6-1.9,0.8l-0.2,0.1c-0.9,0.3-1.9,0.3-2.9,0.1h-0.2
				c-0.6-0.2-1.2-0.4-1.7-0.8l-0.1-0.1l-0.2-0.1l-0.2,0.3c0,0.1-0.1,0.2-0.2,0.3l-0.2,0.3l0.2,0.1l0.1,0.1l0,0
				c0.6,0.4,1.2,0.7,1.9,0.9h0.2c1,0.2,2.1,0.1,3-0.2l0.2-0.1c0.7-0.2,1.4-0.5,2-0.9c0.5-0.3,1-0.6,1.5-1l0.2-0.2
				c1.2-1,2.2-2,3.1-3.2l0.2-0.3c0.7-1,1.4-2,2-3.1c0.1-0.1,0.1-0.2,0.2-0.3l0.2-0.3L367.8,298.2z"/>
			<path class="st7" d="M367.8,316.9c-0.1,0-0.1-0.1-0.2-0.1c-0.6-0.4-1.3-0.7-2-0.8c-0.1,0-0.1,0-0.2,0c-1.1-0.1-2.1,0-3.1,0.4
				l-0.2,0.1c-0.5,0.2-1,0.4-1.5,0.7c-0.7,0.4-1.3,0.9-2,1.4l-0.2,0.2c-1.1,1-2.2,2.1-3,3.3l-0.2,0.3c-0.7,1-1.3,2-1.9,3v0
				c0,0.1-0.1,0.2-0.1,0.3L353,326l0.2,0.1c0.1,0,0.1,0.1,0.2,0.1l0.2,0.1l0.2-0.3l0.1-0.3c0.5-1,1.1-1.9,1.7-2.8l0.2-0.2
				c0.8-1.1,1.8-2.2,2.9-3.1l0.2-0.2c0.6-0.5,1.2-0.9,1.9-1.3c0.5-0.3,0.9-0.5,1.4-0.7l0.2-0.1c0.9-0.4,1.9-0.5,2.9-0.4h0.2
				c0.7,0.1,1.3,0.4,1.8,0.8l0.2,0.1l0.2,0.1l0.2-0.3v0c0-0.1,0.1-0.2,0.1-0.3l0.2-0.3L367.8,316.9z"/>
			<path class="st7" d="M364.2,300.2c-1-2.1-2.4-2.8-3.8-1.9s-2.8,3.1-3.8,6.3c-1,3.4-1.5,7-1.5,10.5c-0.1,3,0.4,6,1.5,8.8
				c1,2.1,2.4,2.8,3.8,1.9s2.8-3.1,3.8-6.3c1-3.4,1.5-7,1.5-10.5C365.9,306,365.3,303,364.2,300.2z M360.4,325
				c-1.3,0.7-2.4,0.1-3.4-1.8c-1.1-2.6-1.5-5.5-1.4-8.3c0-3.4,0.5-6.8,1.4-10c0.9-2.9,2.1-4.9,3.4-5.6s2.4-0.1,3.3,1.8
				c1.1,2.6,1.5,5.5,1.4,8.3c0,3.4-0.5,6.8-1.4,10C362.8,322.2,361.6,324.2,360.4,325z"/>
			<path class="st7" d="M370.4,305.9l-20,11.5c-0.2,0.2-0.3,0.4-0.3,0.7c0,0.2,0.1,0.4,0.3,0.3l20-11.5c0.2-0.2,0.3-0.4,0.3-0.7
				C370.7,305.9,370.6,305.8,370.4,305.9z"/>
			<path class="st7" d="M360.8,325.2v-26.6c0-0.2-0.2-0.4-0.4-0.2c-0.2,0.1-0.4,0.4-0.4,0.7v26.6c0,0.2,0.2,0.4,0.4,0.2
				C360.6,325.7,360.7,325.5,360.8,325.2z"/>
			<path class="st16" d="M339.2,352l47.8-27.6c0.4-0.2,0.9-0.2,1.4,0l2.4,1.4c0.2,0.1,0.3,0.3,0.3,0.5c0,0.1-0.1,0.2-0.3,0.3
				L343,354.2c-0.4,0.2-0.9,0.2-1.3,0l-2.4-1.4c-0.2-0.1-0.3-0.3-0.3-0.5C339,352.1,339.1,352,339.2,352z"/>
			<path class="st17" d="M345.5,355.6l47.9-27.6c0.4-0.2,0.9-0.2,1.3,0l15,8.7c0.4,0.2,0.4,0.6,0,0.8L362,365.1
				c-0.4,0.2-0.9,0.2-1.3,0l-15.1-8.6c-0.2-0.1-0.4-0.3-0.3-0.5C345.3,355.8,345.4,355.7,345.5,355.6z"/>
			<path class="st1" d="M388.4,340.5l1.5-0.9c0.1,0,0.1-0.1,0-0.1l-1.7-1c-0.1,0-0.2,0-0.2,0l-1.5,0.9c-0.1,0-0.1,0.1,0,0.1l1.7,1
				C388.2,340.5,388.3,340.5,388.4,340.5z M385.4,337l-1.5,0.9c-0.1,0-0.1,0.1,0,0.1l1.7,1c0.1,0,0.2,0,0.2,0l1.5-0.9
				c0.1,0,0.1-0.1,0-0.1l-1.7-1C385.6,337,385.5,337,385.4,337L385.4,337z M380.6,339.8l-2.5,1.5c-0.1,0-0.1,0.1,0,0.1l1.7,1
				c0.1,0,0.2,0,0.2,0l2.5-1.5c0.1,0,0-0.1,0-0.1l-1.7-1C380.7,339.8,380.7,339.8,380.6,339.8L380.6,339.8z M383.2,338.3l-1.5,0.9
				c-0.1,0-0.1,0.1,0,0.1l1.7,1c0.1,0,0.2,0,0.2,0l1.5-0.9c0.1,0,0.1-0.1,0-0.1l-1.7-1C383.4,338.3,383.3,338.3,383.2,338.3
				L383.2,338.3z M377.3,341.7l-1.5,0.9c-0.1,0-0.1,0.1,0,0.1l1.7,1c0.1,0,0.2,0,0.2,0l1.5-0.9c0.1,0,0.1-0.1,0-0.1l-1.7-1
				C377.5,341.6,377.4,341.6,377.3,341.7L377.3,341.7z M375.1,342.9l-1.5,0.9c-0.1,0-0.1,0.1,0,0.1l1.7,1c0.1,0,0.2,0,0.2,0l1.5-0.9
				c0.1,0,0.1-0.1,0-0.1l-1.7-1C375.3,342.9,375.2,342.9,375.1,342.9L375.1,342.9z M382,347l1.5-0.9c0.1,0,0.1-0.1,0-0.1l-1.7-1
				c-0.1,0-0.2,0-0.2,0l-1.5,0.9c-0.1,0-0.1,0.1,0,0.1l1.7,1C381.8,347,381.9,347,382,347z M379.8,348.3l1.5-0.9
				c0.1,0,0.1-0.1,0-0.1l-1.7-1c-0.1,0-0.2,0-0.2,0l-1.5,0.9c-0.1,0-0.1,0.1,0,0.1l1.7,1C379.6,348.3,379.7,348.3,379.8,348.3
				L379.8,348.3z M377.6,349.5l1.5-0.9c0.1,0,0.1-0.1,0-0.1l-1.7-1c-0.1,0-0.2,0-0.2,0l-1.5,0.9c-0.1,0-0.1,0.1,0,0.1l1.7,1
				C377.5,349.6,377.5,349.6,377.6,349.5L377.6,349.5z M375.4,350.8l1.5-0.9c0.1,0,0.1-0.1,0-0.1l-1.7-1c-0.1,0-0.2,0-0.2,0
				l-1.5,0.9c-0.1,0-0.1,0.1,0,0.1l1.7,1C375.3,350.8,375.4,350.8,375.4,350.8L375.4,350.8z M386.2,341.7l1.5-0.9
				c0.1,0,0.1-0.1,0-0.1l-1.7-1c-0.1,0-0.2,0-0.2,0l-1.5,0.9c-0.1,0-0.1,0.1,0,0.1l1.7,1C386,341.8,386.1,341.8,386.2,341.7
				L386.2,341.7z M384.2,345.7l3.3-1.9c0.1,0,0.1-0.1,0-0.1l-4.2-2.4c-0.1,0-0.2,0-0.2,0l-1.7,1c-0.1,0-0.1,0.1,0,0.1l2.2,1.3
				c0.1,0,0.1,0.1,0,0.1l-1.4,0.8c-0.1,0-0.1,0.1,0,0.1l1.7,1C384,345.8,384.1,345.8,384.2,345.7L384.2,345.7z M373,344.2l-1.5,0.9
				c-0.1,0-0.1,0.1,0,0.1l1.7,1c0.1,0,0.2,0,0.2,0l1.5-0.9c0.1,0,0.1-0.1,0-0.1l-1.7-1C373.2,344.2,373.1,344.2,373,344.2z
				 M370.8,345.5l-1.5,0.9c-0.1,0-0.1,0.1,0,0.1l1.7,1c0.1,0,0.2,0,0.2,0l1.5-0.9c0.1,0,0.1-0.1,0-0.1l-1.7-1
				C371,345.4,370.9,345.4,370.8,345.5L370.8,345.5z M359.9,359.6c0.1,0,0.2,0,0.2,0l1.5-0.9c0.1,0,0.1-0.1,0-0.1l-1.7-1
				c-0.1,0-0.2,0-0.2,0l-1.5,0.9c-0.1,0-0.1,0.1,0,0.1L359.9,359.6z M353.3,355.6l-1.5,0.9c-0.1,0-0.1,0.1,0,0.1l1.7,1
				c0.1,0,0.2,0,0.2,0l1.5-0.9c0.1,0,0.1-0.1,0-0.1l-1.7-1C353.5,355.5,353.4,355.5,353.3,355.6L353.3,355.6z M356.8,358.6
				c0.1,0,0.2,0,0.2,0l1.5-0.9c0.1,0,0.1-0.1,0-0.1l-1.7-1c-0.1,0-0.2,0-0.2,0l-1.5,0.9c-0.1,0-0.1,0.1,0,0.1L356.8,358.6z
				 M363.7,360.4l1.5-0.9c0.1,0,0.1-0.1,0-0.1l-1.7-1c-0.1,0-0.2,0-0.2,0l-1.5,0.9c-0.1,0-0.1,0.1,0,0.1l1.7,1
				C363.6,360.5,363.7,360.4,363.7,360.4L363.7,360.4z M361.3,361.7c0.1,0,0.2,0,0.2,0l1.5-0.9c0.1,0,0.1-0.1,0-0.1l-1.7-1
				c-0.1,0-0.2,0-0.2,0l-1.5,0.9c-0.1,0-0.1,0.1,0,0.1L361.3,361.7z M355.5,354.3l-1.5,0.9c-0.1,0-0.1,0.1,0,0.1l1.7,1
				c0.1,0,0.2,0,0.2,0l1.5-0.9c0.1,0,0.1-0.1,0-0.1l-1.7-1C355.6,354.3,355.6,354.3,355.5,354.3L355.5,354.3z M366.4,348l-1.5,0.9
				c-0.1,0-0.1,0.1,0,0.1l1.7,1c0.1,0,0.2,0,0.2,0l1.5-0.9c0.1,0,0.1-0.1,0-0.1l-1.7-1C366.6,348,366.5,348,366.4,348z M357.7,353
				l-1.5,0.9c-0.1,0-0.1,0.1,0,0.1l1.7,1c0.1,0,0.2,0,0.2,0l1.5-0.9c0.1,0,0.1-0.1,0-0.1l-1.7-1C357.8,353,357.7,353,357.7,353z
				 M368.6,346.7l-1.5,0.9c-0.1,0-0.1,0.1,0,0.1l1.7,1c0.1,0,0.2,0,0.2,0l1.5-0.9c0.1,0,0.1-0.1,0-0.1l-1.7-1
				C368.8,346.7,368.7,346.7,368.6,346.7L368.6,346.7z M364.2,349.2l-1.5,0.9c-0.1,0-0.1,0.1,0,0.1l1.7,1c0.1,0,0.2,0,0.2,0l1.5-0.9
				c0.1,0,0.1-0.1,0-0.1l-1.7-1C364.4,349.2,364.3,349.2,364.2,349.2L364.2,349.2z M362,350.5l-1.5,0.9c-0.1,0-0.1,0.1,0,0.1l1.7,1
				c0.1,0,0.2,0,0.2,0l1.5-0.9c0.1,0,0.1-0.1,0-0.1l-1.7-1C362.2,350.5,362.1,350.5,362,350.5z M359.8,351.8l-1.5,0.9
				c-0.1,0-0.1,0.1,0,0.1l1.7,1c0.1,0,0.2,0,0.2,0l1.5-0.9c0.1,0,0.1-0.1,0-0.1l-1.7-1C360,351.7,359.9,351.8,359.8,351.8
				L359.8,351.8z M371,353.3l1.5-0.9c0.1,0,0.1-0.1,0-0.1l-1.7-1c-0.1,0-0.2,0-0.2,0l-1.5,0.9c-0.1,0-0.1,0.1,0,0.1l1.7,1
				C370.8,353.4,371,353.4,371,353.3L371,353.3z M390.2,334.2l-1.5,0.9c-0.1,0-0.1,0.1,0,0.1l1.7,1c0.1,0,0.2,0,0.2,0l1.5-0.9
				c0.1,0,0.1-0.1,0-0.1l-1.7-1C390.4,334.2,390.3,334.2,390.2,334.2L390.2,334.2z M387.6,335.8l-1.5,0.9c-0.1,0-0.1,0.1,0,0.1
				l1.7,1c0.1,0,0.2,0,0.2,0l1.5-0.9c0.1,0,0.1-0.1,0-0.1l-1.7-1C387.7,335.7,387.7,335.7,387.6,335.8L387.6,335.8z M392.4,333
				l-1.5,0.9c-0.1,0-0.1,0.1,0,0.1l1.7,1c0.1,0,0.2,0,0.2,0l1.5-0.9c0.1,0,0.1-0.1,0-0.1l-1.7-1C392.6,332.9,392.5,333,392.4,333
				L392.4,333z M381.1,344.6l1.5-0.9c0.1,0,0.1-0.1,0-0.1l-1.7-1c-0.1,0-0.2,0-0.2,0l-1.5,0.9c-0.1,0-0.1,0.1,0,0.1l1.7,1
				C380.9,344.7,381,344.7,381.1,344.6L381.1,344.6z M394.9,331.7c-0.1,0-0.2,0-0.2,0l-1.5,0.9c-0.1,0-0.1,0.1,0,0.1l1.7,1
				c0.1,0,0.2,0,0.2,0l1.5-0.9c0.1,0,0.1-0.1,0-0.1L394.9,331.7z M373.2,352l1.5-0.9c0.1,0,0.1-0.1,0-0.1l-1.7-1c-0.1,0-0.2,0-0.2,0
				l-1.5,0.9c-0.1,0-0.1,0.1,0,0.1l1.7,1C373.1,352.1,373.2,352.1,373.2,352L373.2,352z M400,336.5l1.5-0.9c0.1,0,0.1-0.1,0-0.1
				l-1.7-1c-0.1,0-0.2,0-0.2,0l-1.5,0.9c-0.1,0-0.1,0.1,0,0.1l1.7,1C399.9,336.6,400,336.6,400,336.5L400,336.5z M395.4,336.4
				l1.5-0.9c0.1,0,0.1-0.1,0-0.1l-1.7-1c-0.1,0-0.2,0-0.2,0l-1.5,0.9c-0.1,0-0.1,0.1,0,0.1l1.7,1
				C395.2,336.4,395.3,336.4,395.4,336.4L395.4,336.4z M397.3,333.1c-0.1,0-0.2,0-0.2,0l-1.5,0.9c-0.1,0-0.1,0.1,0,0.1l1.7,1
				c0.1,0,0.2,0,0.2,0l1.5-0.9c0.1,0,0.1-0.1,0-0.1L397.3,333.1z M397.8,332.9l4.2,2.4c0.1,0,0.2,0,0.2,0l1.5-0.9
				c0.1,0,0.1-0.1,0-0.1l-4.2-2.4c-0.1,0-0.2,0-0.2,0l-1.5,0.9C397.8,332.8,397.8,332.8,397.8,332.9L397.8,332.9z M392.7,335.6
				l-1.5,0.9c-0.1,0-0.1,0.1,0,0.1l1.7,1c0.1,0,0.2,0,0.2,0l1.5-0.9c0.1,0,0.1-0.1,0-0.1l-1.7-1
				C392.9,335.6,392.8,335.6,392.7,335.6L392.7,335.6z M376.2,345.2l-1.5,0.9c-0.1,0-0.1,0.1,0,0.1l1.7,1c0.1,0,0.2,0,0.2,0l1.5-0.9
				c0.1,0,0.1-0.1,0-0.1l-1.7-1C376.4,345.1,376.3,345.1,376.2,345.2L376.2,345.2z M397.6,337.8c0.1,0,0.2,0,0.2,0l1.5-0.9
				c0.1,0,0.1-0.1,0-0.1l-1.7-1c-0.1,0-0.2,0-0.2,0l-1.5,0.9c-0.1,0-0.1,0.1,0,0.1L397.6,337.8z M378.4,343.9l-1.5,0.9
				c-0.1,0-0.1,0.1,0,0.1l1.7,1c0.1,0,0.2,0,0.2,0l1.5-0.9c0.1,0,0.1-0.1,0-0.1l-1.7-1C378.6,343.9,378.5,343.9,378.4,343.9
				L378.4,343.9z M362,358.4c0.1,0,0.2,0,0.2,0l1.5-0.9c0.1,0,0.1-0.1,0-0.1l-1.7-1c-0.1,0-0.2,0-0.2,0l-1.5,0.9
				c-0.1,0-0.1,0.1,0,0.1L362,358.4z M358.7,355.3l-1.5,0.9c-0.1,0-0.1,0.1,0,0.1l1.7,1c0.1,0,0.2,0,0.2,0l1.5-0.9
				c0.1,0,0.1-0.1,0-0.1l-1.7-1C358.9,355.2,358.8,355.2,358.7,355.3L358.7,355.3z M364.4,357.1l1.5-0.9c0.1,0,0.1-0.1,0-0.1l-1.7-1
				c-0.1,0-0.2,0-0.2,0l-1.5,0.9c-0.1,0-0.1,0.1,0,0.1l1.7,1C364.3,357.2,364.4,357.2,364.4,357.1L364.4,357.1z M366.6,355.8
				l1.5-0.9c0.1,0,0.1-0.1,0-0.1l-1.7-1c-0.1,0-0.2,0-0.2,0l-1.5,0.9c-0.1,0-0.1,0.1,0,0.1l1.7,1
				C366.5,355.9,366.6,355.9,366.6,355.8L366.6,355.8z M368.8,354.6l1.5-0.9c0.1,0,0.1-0.1,0-0.1l-1.7-1c-0.1,0-0.2,0-0.2,0
				l-1.5,0.9c-0.1,0-0.1,0.1,0,0.1l1.7,1C368.7,354.6,368.8,354.6,368.8,354.6L368.8,354.6z M361,354l-1.5,0.9c-0.1,0-0.1,0.1,0,0.1
				l1.7,1c0.1,0,0.2,0,0.2,0l1.5-0.9c0.1,0,0.1-0.1,0-0.1l-1.7-1C361.2,354,361.1,354,361,354z M363.2,352.7l-1.5,0.9
				c-0.1,0-0.1,0.1,0,0.1l1.7,1c0.1,0,0.2,0,0.2,0l1.5-0.9c0.1,0,0.1-0.1,0-0.1l-1.7-1C363.3,352.7,363.2,352.7,363.2,352.7
				L363.2,352.7z M371.9,347.7l-1.5,0.9c-0.1,0-0.1,0.1,0,0.1l1.7,1c0.1,0,0.2,0,0.2,0l1.5-0.9c0.1,0,0.1-0.1,0-0.1l-1.7-1
				C372.1,347.6,372,347.6,371.9,347.7L371.9,347.7z M369.7,349l-1.5,0.9c-0.1,0-0.1,0.1,0,0.1l1.7,1c0.1,0,0.2,0,0.2,0l1.5-0.9
				c0.1,0,0.1-0.1,0-0.1l-1.7-1C369.9,349,369.8,349,369.7,349z M374.1,346.5l-1.5,0.9c-0.1,0-0.1,0.1,0,0.1l1.7,1
				c0.1,0,0.2,0,0.2,0l1.5-0.9c0.1,0,0.1-0.1,0-0.1l-1.7-1C374.3,346.4,374.2,346.4,374.1,346.5L374.1,346.5z M365.3,351.5l-1.5,0.9
				c-0.1,0-0.1,0.1,0,0.1l1.7,1c0.1,0,0.2,0,0.2,0l1.5-0.9c0.1,0,0.1-0.1,0-0.1l-1.7-1C365.5,351.5,365.4,351.5,365.3,351.5
				L365.3,351.5z M367.5,350.3l-1.5,0.9c-0.1,0-0.1,0.1,0,0.1l1.7,1c0.1,0,0.2,0,0.2,0l1.5-0.9c0.1,0,0.1-0.1,0-0.1l-1.7-1
				C367.7,350.2,367.6,350.2,367.5,350.3L367.5,350.3z M365.9,359.2l1.5-0.9c0.1,0,0.1-0.1,0-0.1l-1.7-1c-0.1,0-0.2,0-0.2,0L364,358
				c-0.1,0-0.1,0.1,0,0.1l1.7,1C365.8,359.2,365.9,359.2,365.9,359.2L365.9,359.2z M353.1,357.9l-1.7-1c-0.1,0-0.2,0-0.2,0l-1.5,0.9
				c-0.1,0-0.1,0.1,0,0.1l1.7,1c0.1,0,0.2,0,0.2,0l1.5-0.9C353.1,357.9,353.1,357.9,353.1,357.9L353.1,357.9z M356.4,358.9l-1.7-1
				c-0.1,0-0.2,0-0.2,0l-2.3,1.3c-0.1,0-0.1,0.1,0,0.1l1.7,1c0.1,0,0.2,0,0.2,0l2.3-1.3C356.4,358.9,356.4,358.8,356.4,358.9
				L356.4,358.9z M350.4,356l-1.7-1c-0.1,0-0.2,0-0.2,0l-1.9,1c-0.1,0,0,0.1,0,0.1l1.7,1c0.1,0,0.2,0,0.2,0L350.4,356
				C350.5,356,350.5,356,350.4,356L350.4,356z M351.8,355.2c0.1,0,0.2,0,0.2,0l1.5-0.9c0.1,0,0.1-0.1,0-0.1l-1.7-1
				c-0.1,0-0.2,0-0.2,0l-1.5,0.9c-0.1,0-0.1,0.1,0,0.1L351.8,355.2z M359.4,360l-1.7-1c-0.1,0-0.2,0-0.2,0l-2.9,1.7
				c-0.1,0-0.1,0.1,0,0.1l1.7,1c0.1,0,0.2,0,0.2,0l2.9-1.7C359.5,360,359.5,359.9,359.4,360L359.4,360z M360.8,362l-1.7-1
				c-0.1,0-0.2,0-0.2,0l-1.9,1c-0.1,0-0.1,0.1,0,0.1l1.7,1c0.1,0,0.2,0,0.2,0L360.8,362C360.9,362,360.9,362,360.8,362L360.8,362z
				 M368.1,345.8c0.1,0,0.2,0,0.2,0l1.5-0.9c0.1,0,0.1-0.1,0-0.1l-1.7-1c-0.1,0-0.2,0-0.2,0l-1.5,0.9c-0.1,0-0.1,0.1,0,0.1
				L368.1,345.8z M363.7,348.3c0.1,0,0.2,0,0.2,0l1.5-0.9c0.1,0,0.1-0.1,0-0.1l-1.7-1c-0.1,0-0.2,0-0.2,0l-1.5,0.9
				c-0.1,0-0.1,0.1,0,0.1L363.7,348.3z M354,353.8c0.1,0,0.2,0,0.2,0l1.5-0.9c0.1,0,0.1-0.1,0-0.1l-1.7-1c-0.1,0-0.2,0-0.2,0
				l-1.5,0.9c-0.1,0-0.1,0.1,0,0.1L354,353.8z M365.9,347c0.1,0,0.2,0,0.2,0l1.5-0.9c0.1,0,0.1-0.1,0-0.1l-1.7-1c-0.1,0-0.2,0-0.2,0
				l-1.5,0.9c-0.1,0-0.1,0.1,0,0.1L365.9,347z M361.5,349.5c0.1,0,0.2,0,0.2,0l1.5-0.9c0.1,0,0.1-0.1,0-0.1l-1.7-1
				c-0.1,0-0.2,0-0.2,0l-1.5,0.9c-0.1,0-0.1,0.1,0,0.1L361.5,349.5z M362,362.1c-0.1,0-0.2,0-0.2,0l-2.3,1.3c-0.1,0-0.1,0.1,0,0.1
				l1.7,1c0.1,0,0.2,0,0.2,0l2.3-1.3c0.1,0,0.1-0.1,0-0.1L362,362.1z M358.4,351.3c0.1,0,0.2,0,0.2,0l1.5-0.9c0.1,0,0.1-0.1,0-0.1
				l-1.7-1c-0.1,0-0.2,0-0.2,0l-1.5,0.9c-0.1,0-0.1,0.1,0,0.1L358.4,351.3z M356.2,352.6c0.1,0,0.2,0,0.2,0l1.5-0.9
				c0.1,0,0.1-0.1,0-0.1l-1.7-1c-0.1,0-0.2,0-0.2,0l-1.5,0.9c-0.1,0-0.1,0.1,0,0.1L356.2,352.6z M402.6,338.7c-0.1,0-0.2,0-0.2,0
				l-3.7,2.1c-0.1,0-0.1,0.1,0,0.1l1.7,1c0.1,0,0.2,0,0.2,0l3.7-2.1c0.1,0,0.1-0.1,0-0.1L402.6,338.7z M397.8,341.5
				c-0.1,0-0.2,0-0.2,0l-1.5,0.9c-0.1,0-0.1,0.1,0,0.1l1.7,1c0.1,0,0.2,0,0.2,0l1.5-0.9c0.1,0,0.1-0.1,0-0.1L397.8,341.5z
				 M368.1,357.9l1.5-0.9c0.1,0,0.1-0.1,0-0.1l-1.7-1c-0.1,0-0.2,0-0.2,0l-1.5,0.9c-0.1,0-0.1,0.1,0,0.1l1.7,1
				C367.9,357.9,368,357.9,368.1,357.9L368.1,357.9z M393.4,344c-0.1,0-0.2,0-0.2,0l-1.5,0.9c-0.1,0-0.1,0.1,0,0.1l1.7,1
				c0.1,0,0.2,0,0.2,0l1.5-0.9c0.1,0,0.1-0.1,0-0.1L393.4,344z M404.8,337.4c-0.1,0-0.2,0-0.2,0l-1.5,0.9c-0.1,0-0.1,0.1,0,0.1
				l1.7,1c0.1,0,0.2,0,0.2,0l1.5-0.9c0.1,0,0.1-0.1,0-0.1L404.8,337.4z M408.7,337.2l-4.2-2.4c-0.1,0-0.2,0-0.2,0l-1.5,0.9
				c-0.1,0-0.1,0.1,0,0.1l4.2,2.4c0.1,0,0.2,0,0.2,0l1.5-0.9C408.8,337.2,408.8,337.2,408.7,337.2L408.7,337.2z M385.2,348.7
				c-0.1,0-0.2,0-0.2,0l-1.8,1.1c-0.1,0-0.1,0.1,0,0.1l1.7,1c0.1,0,0.2,0,0.2,0l1.8-1.1c0.1,0,0.1-0.1,0-0.1L385.2,348.7z
				 M390.7,345.5c-0.1,0-0.2,0-0.2,0l-2.3,1.3c-0.1,0-0.1,0.1,0,0.1l1.7,1c0.1,0,0.2,0,0.2,0l2.3-1.3c0.1,0,0.1-0.1,0-0.1
				L390.7,345.5z M380.1,351.6c-0.1,0-0.2,0-0.2,0l-12.3,7.1c-0.1,0-0.1,0.1,0,0.1l1.7,1c0.1,0,0.2,0,0.2,0l12.3-7.1
				c0.1,0,0.1-0.1,0-0.1L380.1,351.6z M367.1,359.2c-0.1,0-0.2,0-0.2,0l-1.9,1.1c-0.1,0-0.1,0.1,0,0.1l1.7,1c0.1,0,0.2,0,0.2,0
				l1.8-1.1c0.1,0,0.1-0.1,0-0.1L367.1,359.2z M382.7,350.2c-0.1,0-0.2,0-0.2,0l-1.9,1.1c-0.1,0-0.1,0.1,0,0.1l1.7,1
				c0.1,0,0.2,0,0.2,0l1.9-1.1c0.1,0,0.1-0.1,0-0.1L382.7,350.2z M364.6,360.6c-0.1,0-0.2,0-0.2,0l-1.9,1.1c-0.1,0-0.1,0.1,0,0.1
				l1.7,1c0.1,0,0.2,0,0.2,0l1.9-1.1c0.1,0,0.1-0.1,0-0.1L364.6,360.6z M387.8,347.2c-0.1,0-0.2,0-0.2,0l-1.9,1.1
				c-0.1,0-0.1,0.1,0,0.1l1.7,1c0.1,0,0.2,0,0.2,0l1.9-1.1c0.1,0,0.1-0.1,0-0.1L387.8,347.2z M395.6,342.7c-0.1,0-0.2,0-0.2,0
				l-1.5,0.9c-0.1,0-0.1,0.1,0,0.1l1.7,1c0.1,0,0.2,0,0.2,0l1.5-0.9c0.1,0,0.1-0.1,0-0.1L395.6,342.7z M400.4,339.2l1.5-0.9
				c0.1,0,0.1-0.1,0-0.1l-1.7-1c-0.1,0-0.2,0-0.2,0l-1.5,0.9c-0.1,0-0.1,0.1,0,0.1l1.7,1C400.2,339.3,400.3,339.3,400.4,339.2
				L400.4,339.2z M390.6,339.2l1.5-0.9c0.1,0,0.1-0.1,0-0.1l-1.7-1c-0.1,0-0.2,0-0.2,0l-1.5,0.9c-0.1,0-0.1,0.1,0,0.1l1.7,1
				C390.4,339.2,390.5,339.2,390.6,339.2L390.6,339.2z M385.6,347.7l4.4-2.5c0.1,0,0.1-0.1,0-0.1l-1.7-1c-0.1,0-0.2,0-0.2,0
				l-4.4,2.5c-0.1,0-0.1,0.1,0,0.1l1.7,1C385.4,347.8,385.5,347.8,385.6,347.7L385.6,347.7z M397.9,340.5c0.1,0,0.2,0,0.2,0l1.5-0.9
				c0.1,0,0.1-0.1,0-0.1l-1.7-1c-0.1,0-0.2,0-0.2,0l-1.5,0.9c-0.1,0-0.1,0.1,0,0.1L397.9,340.5z M395.7,339.1l1.5-0.9
				c0.1,0,0.1-0.1,0-0.1l-1.7-1c-0.1,0-0.2,0-0.2,0l-1.5,0.9c-0.1,0-0.1,0.1,0,0.1l1.7,1C395.5,339.1,395.6,339.1,395.7,339.1
				L395.7,339.1z M383.4,349l1.5-0.9c0.1,0,0.1-0.1,0-0.1l-1.7-1c-0.1,0-0.2,0-0.2,0l-1.5,0.9c-0.1,0-0.1,0.1,0,0.1l1.7,1
				C383.3,349,383.4,349,383.4,349z M393.1,343.3c0.1,0,0.2,0,0.2,0l1.5-0.9c0.1,0,0.1-0.1,0-0.1l-1.7-1c-0.1,0-0.2,0-0.2,0
				l-1.5,0.9c-0.1,0-0.1,0.1,0,0.1L393.1,343.3z M372.5,355.3l1.5-0.9c0.1,0,0.1-0.1,0-0.1l-1.7-1c-0.1,0-0.2,0-0.2,0l-1.5,0.9
				c-0.1,0-0.1,0.1,0,0.1l1.7,1C372.3,355.4,372.4,355.4,372.5,355.3L372.5,355.3z M374.7,354l1.5-0.9c0.1,0,0.1-0.1,0-0.1l-1.7-1
				c-0.1,0-0.2,0-0.2,0l-1.5,0.9c-0.1,0-0.1,0.1,0,0.1l1.7,1C374.5,354.1,374.6,354.1,374.7,354L374.7,354z M370.3,356.6l1.5-0.9
				c0.1,0,0.1-0.1,0-0.1l-1.7-1c-0.1,0-0.2,0-0.2,0l-1.5,0.9c-0.1,0-0.1,0.1,0,0.1l1.7,1C370.1,356.6,370.2,356.6,370.3,356.6
				L370.3,356.6z M379.1,351.5l1.5-0.9c0.1,0,0.1-0.1,0-0.1l-1.7-1c-0.1,0-0.2,0-0.2,0l-1.5,0.9c-0.1,0-0.1,0.1,0,0.1l1.7,1
				C378.9,351.6,379,351.6,379.1,351.5L379.1,351.5z M376.9,352.8l1.5-0.9c0.1,0,0.1-0.1,0-0.1l-1.7-1c-0.1,0-0.2,0-0.2,0l-1.5,0.9
				c-0.1,0-0.1,0.1,0,0.1l1.7,1C376.7,352.8,376.8,352.8,376.9,352.8L376.9,352.8z M381.2,350.3l1.5-0.9c0.1,0,0.1-0.1,0-0.1l-1.7-1
				c-0.1,0-0.2,0-0.2,0l-1.5,0.9c-0.1,0-0.1,0.1,0,0.1l1.7,1C381.1,350.3,381.2,350.3,381.2,350.3L381.2,350.3z M391.2,331.6
				c0.1,0,0.2,0,0.2,0l1.5-0.9c0.1,0,0.1-0.1,0-0.1l-0.5-0.3c-0.1,0-0.2,0-0.2,0l-1.5,0.9c-0.1,0-0.1,0.1,0,0.1L391.2,331.6z
				 M380.5,338.6c0.1,0,0.2,0,0.2,0l1.5-0.9c0.1,0,0.1-0.1,0-0.1l-1.7-1c-0.1,0-0.2,0-0.2,0l-1.5,0.9c-0.1,0-0.1,0.1,0,0.1
				L380.5,338.6z M384.8,336c0.1,0,0.2,0,0.2,0l1.5-0.9c0.1,0,0.1-0.1,0-0.1l-1.7-1c-0.1,0-0.2,0-0.2,0l-1.5,0.9
				c-0.1,0-0.1,0.1,0,0.1L384.8,336z M377.8,340.1c0.1,0,0.2,0,0.2,0l1.5-0.9c0.1,0,0.1-0.1,0-0.1l-1.7-1c-0.1,0-0.2,0-0.2,0
				l-1.5,0.9c-0.1,0-0.1,0.1,0,0.1L377.8,340.1z M382.7,337.3c0.1,0,0.2,0,0.2,0l1.5-0.9c0.1,0,0.1-0.1,0-0.1l-1.7-1
				c-0.1,0-0.2,0-0.2,0l-1.5,0.9c-0.1,0-0.1,0.1,0,0.1L382.7,337.3z M373.4,342.6c0.1,0,0.2,0,0.2,0l1.5-0.9c0.1,0,0.1-0.1,0-0.1
				l-1.7-1c-0.1,0-0.2,0-0.2,0l-1.5,0.9c-0.1,0-0.1,0.1,0,0.1L373.4,342.6z M375.6,341.4c0.1,0,0.2,0,0.2,0l1.5-0.9
				c0.1,0,0.1-0.1,0-0.1l-1.7-1c-0.1,0-0.2,0-0.2,0l-1.5,0.9c-0.1,0-0.1,0.1,0,0.1L375.6,341.4z M386.9,334.1c0.1,0,0.2,0,0.2,0
				l1.5-0.9c0.1,0,0.1-0.1,0-0.1l-0.5-0.3c-0.1,0-0.2,0-0.2,0l-1.5,0.9c-0.1,0-0.1,0.1,0,0.1L386.9,334.1z M393.4,330.3
				c0.1,0,0.2,0,0.2,0l1.5-0.9c0.1,0,0.1-0.1,0-0.1l-0.5-0.3c-0.1,0-0.2,0-0.2,0l-1.5,0.9c-0.1,0-0.1,0.1,0,0.1L393.4,330.3z
				 M397.1,332.4c0.1,0,0.2,0,0.2,0l1.5-0.9c0.1,0,0.1-0.1,0-0.1l-1.7-1c-0.1,0-0.2,0-0.2,0l-1.5,0.9c-0.1,0-0.1,0.1,0,0.1
				L397.1,332.4z M402.5,338l1.5-0.9c0.1,0,0.1-0.1,0-0.1l-1.7-1c-0.1,0-0.2,0-0.2,0l-1.5,0.9c-0.1,0-0.1,0.1,0,0.1l1.7,1
				C402.4,338.1,402.5,338.1,402.5,338L402.5,338z M389.1,332.9c0.1,0,0.2,0,0.2,0l1.5-0.9c0.1,0,0-0.1,0-0.1l-0.5-0.3
				c-0.1,0-0.2,0-0.2,0l-1.5,0.9c-0.1,0-0.1,0.1,0,0.1L389.1,332.9z M371.2,343.9c0.1,0,0.2,0,0.2,0l1.5-0.9c0.1,0,0.1-0.1,0-0.1
				l-1.7-1c-0.1,0-0.2,0-0.2,0l-1.5,0.9c-0.1,0-0.1,0.1,0,0.1L371.2,343.9z"/>
			<path class="st17" d="M381,357l14.8-8.5c0.5-0.3,1.1-0.3,1.6,0l8.5,4.9c0.3,0.1,0.4,0.4,0.3,0.6c0,0.1-0.2,0.3-0.3,0.3l-14.9,8.6
				c-0.5,0.3-1.1,0.3-1.6,0L381,358c-0.3,0-0.5-0.2-0.5-0.5S380.7,357,381,357z"/>
		</g>
		<g id="freepik--Mobile--inject-1--inject-68">
			<path class="st1" d="M233.7,350.3h32.6c1.6,0,2.9,1.3,2.9,2.9v66.2c0,1.6-1.3,2.9-2.9,2.9h-32.6c-1.6,0-2.9-1.3-2.9-2.9v-66.2
				C230.8,351.6,232.1,350.3,233.7,350.3z"/>
			<path class="st2" d="M233.8,354.7h32.4c1,0,1.9,0.8,1.9,1.9v59.3c0,1-0.8,1.9-1.9,1.9h-32.4c-1,0-1.9-0.8-1.9-1.9v-59.3
				C231.9,355.6,232.7,354.7,233.8,354.7z"/>
			<path class="st7" d="M258.4,377l-0.1-0.2l0,0c-4.4-4.4-11.6-4.5-16.2-0.2l-0.2,0.2l-0.1,0.1c-4.6,4.5-4.6,11.9,0,16.5
				c4.5,4.6,11.9,4.6,16.5,0C262.8,388.9,262.8,381.6,258.4,377L258.4,377z M251.8,396.3c-0.4,0.1-0.9,0.1-1.3,0.1h-1.1
				c-0.4,0-0.9-0.1-1.3-0.1c-5.5-0.9-9.5-5.6-9.6-11.1V385c0-3,1.3-5.9,3.4-8l0.2-0.2c1.7-1.6,3.8-2.6,6-2.9
				c0.4-0.1,0.9-0.1,1.3-0.1h1.1c0.4,0,0.9,0.1,1.3,0.1c2.4,0.4,4.5,1.5,6.2,3.2l0.2,0.2c2,2.1,3.2,4.9,3.2,7.8v0.2
				C261.3,390.8,257.3,395.4,251.8,396.3L251.8,396.3z"/>
			<path class="st7" d="M250,397.2c-6.7,0-12.2-5.5-12.2-12.2c0-3.2,1.3-6.3,3.6-8.6l0.1-0.1l0.2-0.2c4.8-4.5,12.3-4.4,16.9,0.2l0,0
				l0.2,0.2l0,0c4.7,4.8,4.6,12.5-0.3,17.2C256.2,396,253.2,397.2,250,397.2z M250,374.1h-0.5c-0.4,0-0.8,0.1-1.2,0.1
				c-2.1,0.3-4.1,1.3-5.7,2.8l-0.2,0.2c-2.1,2-3.3,4.8-3.3,7.7v0.2c0,5.3,3.9,9.8,9.1,10.6c0.4,0.1,0.8,0.1,1.2,0.1c0.3,0,0.7,0,1,0
				c0.4,0,0.8-0.1,1.2-0.1l0,0c5.2-0.8,9.1-5.3,9.1-10.6v-0.2c0-2.8-1.1-5.4-3-7.4l-0.2-0.2c-1.6-1.6-3.7-2.7-5.9-3
				c-0.4-0.1-0.8-0.1-1.2-0.1L250,374.1z"/>
			<path class="st7" d="M258.6,376.8l-0.2-0.2l0,0l-0.2-0.2l-0.2,0.2l-0.2,0.2c-0.6,0.6-1.4,1.1-2.1,1.6l-0.2,0.1
				c-1.1,0.6-2.2,1-3.4,1.2h-0.2c-0.5,0.1-1.1,0.1-1.7,0.1c-0.7,0-1.4-0.1-2.1-0.2l-0.2,0c-1.2-0.2-2.3-0.7-3.3-1.3l-0.2-0.1
				c-0.7-0.4-1.4-1-2-1.6l-0.2-0.2l-0.2-0.2l-0.2,0.2l-0.2,0.2l-0.2,0.2l0.2,0.2l0.2,0.2l0,0c0.7,0.7,1.4,1.2,2.2,1.7l0.2,0.1
				c1.1,0.6,2.3,1.1,3.5,1.4l0.2,0c0.7,0.1,1.5,0.2,2.2,0.2c0.6,0,1.2,0,1.8-0.1h0.2c1.3-0.2,2.5-0.6,3.6-1.2l0.2-0.1
				c0.8-0.5,1.6-1,2.3-1.7l0.2-0.2l0.2-0.2L258.6,376.8z"/>
			<path class="st7" d="M258.6,392.9l-0.2-0.2c-0.7-0.7-1.5-1.2-2.3-1.7l-0.2-0.1c-1.1-0.6-2.3-1-3.6-1.2H252
				c-0.6-0.1-1.2-0.1-1.8-0.1c-0.8,0-1.5,0.1-2.2,0.2l-0.2,0c-1.2,0.3-2.4,0.7-3.5,1.4l-0.2,0.1c-0.8,0.5-1.5,1.1-2.2,1.7l0,0
				l-0.1,0.1l-0.2,0.2l0.2,0.2l0.2,0.2l0.2,0.2l0.2-0.2l0.2-0.2c0.6-0.6,1.3-1.1,2-1.6l0.2-0.1c1-0.6,2.1-1,3.3-1.3l0.2,0
				c0.7-0.1,1.4-0.2,2.1-0.2c0.6,0,1.1,0,1.7,0.1h0.2c1.2,0.2,2.3,0.6,3.4,1.2l0.2,0.1c0.8,0.4,1.5,1,2.1,1.6l0.2,0.2l0.2,0.2
				l0.2-0.2l0,0l0.2-0.2l0.2-0.2L258.6,392.9z"/>
			<path class="st7" d="M254.4,376.7c-1.2-2.3-2.7-3.6-4.4-3.6s-3.2,1.3-4.4,3.6c-2.3,5.3-2.3,11.4,0,16.7c1.2,2.3,2.7,3.6,4.4,3.6
				s3.2-1.3,4.4-3.6C256.8,388.1,256.8,382,254.4,376.7z M250,396.2c-1.4,0-2.8-1.1-3.9-3.2c-2.2-5.1-2.2-10.8,0-15.9
				c1-2.1,2.4-3.2,3.9-3.2s2.8,1.1,3.9,3.2c2.2,5.1,2.2,10.8,0,15.9C252.8,395,251.4,396.2,250,396.2z"/>
			<path class="st7" d="M261.5,384.6h-23.1c-0.2,0-0.4,0.3-0.4,0.5c0,0.2,0.2,0.3,0.4,0.4h23.1c0.2,0,0.4-0.3,0.4-0.5
				C261.9,384.8,261.7,384.7,261.5,384.6z"/>
			<path class="st7" d="M250.4,396.6v-23.1c0-0.2-0.2-0.4-0.4-0.4c-0.2,0-0.4,0.2-0.4,0.4v23.1c0,0.2,0.2,0.4,0.4,0.4
				C250.2,397,250.4,396.8,250.4,396.6z"/>
			<path class="st17" d="M247.5,351.4h5.6c0.3,0,0.6,0.2,0.6,0.6c0,0.3-0.3,0.6-0.6,0.6c0,0,0,0,0,0h-5.6c-0.3,0-0.6-0.2-0.6-0.6
				c0,0,0,0,0,0C246.9,351.7,247.2,351.4,247.5,351.4z"/>
			<path class="st17" d="M257.2,351.4c0.3,0,0.6,0.2,0.6,0.5c0,0,0,0,0,0c0,0.3-0.3,0.6-0.6,0.6l0,0c-0.3,0-0.6-0.3-0.6-0.6
				C256.6,351.7,256.9,351.4,257.2,351.4L257.2,351.4z"/>
			<circle class="st17" cx="259.5" cy="352" r="0.6"/>
			<circle class="st17" cx="241.2" cy="352" r="0.6"/>
			<path class="st17" d="M243.5,351.4c0.3,0,0.6,0.3,0.6,0.6l0,0c0,0.3-0.3,0.6-0.6,0.6c-0.3,0-0.6-0.3-0.6-0.6l0,0
				C242.9,351.7,243.2,351.4,243.5,351.4C243.5,351.4,243.5,351.4,243.5,351.4z"/>
		</g>
		<g id="freepik--Computer--inject-1--inject-68">
			<g id="freepik--Screen--inject-1--inject-68">
				<path class="st17" d="M127.1,363.1l-11.1-6.4c-1-0.4-1.6-1.3-1.7-2.4c0-0.9,0-1.5,0-1.5l11.5-6.5c0.7-0.4,1.1-1.1,1.1-1.9v-13.7
					l19.4,11.2v13.7c0,0.8-0.4,1.5-1.1,1.9l-9.8,5.6C132.8,364.5,129.7,364.5,127.1,363.1z"/>
				<path class="st18" d="M141.6,358v1.5l3.6-2c0.7-0.4,1.1-1.1,1.1-1.9v-13.7l-3.7-2.1c-0.1,0.9-0.2,1.9-0.2,2.9l2.6,1.5v10.7
					c0,0.8-0.5,1.5-1.1,1.9L141.6,358z"/>
				<path class="st1" d="M145,354.8c0,0.8-0.5,1.5-1.1,1.9l-8.5,4.9c-2.6,1.3-5.7,1.3-8.3,0l-11.1-6.4c-2.3-1.3-2.3-3.5,0-4.8
					l8.5-4.9c0.7-0.4,1.1-1.1,1.1-1.9v-10.7l19.4,11.2V354.8z"/>
				<path class="st16" d="M122.2,346.8L122.2,346.8l2.3-1.3c0.7-0.4,1.1-1.1,1.1-1.9v-10.7l19.4,11.2v10.7c0,0.8-0.5,1.5-1.1,1.9
					l-2.2,1.3L122.2,346.8z"/>
				<path class="st16" d="M114.3,352.8v1.5c0.1,1,0.7,2,1.7,2.4l11.1,6.4c1.2,0.7,2.6,1,4,1v-1.5c-1.4,0-2.8-0.3-4-1l-11.1-6.4
					C115,354.8,114.4,353.8,114.3,352.8z"/>
				<path class="st1" d="M95.6,262v59.5c0.1,1,0.6,1.9,1.4,2.4l75.9,43.7l0.1,0.1l0,0c0.7,0.3,1.2-0.1,1.2-0.9v1.2
					c0.5,0,0.9-0.1,1.3-0.3c0.8-0.5,1.3-1.4,1.3-2.4v-59.5c-0.1-1-0.6-1.9-1.4-2.4l-75.8-43.7c-0.8-0.4-1.8-0.5-2.7,0
					c-0.7,0.5-1.2,1.2-1.3,2.1C95.6,261.9,95.6,261.9,95.6,262z"/>
				<path class="st16" d="M95.6,262v59.5c0.1,1,0.6,1.9,1.4,2.4l75.9,43.7l0.1,0.1l0,0c0.7,0.3,1.2-0.1,1.2-0.9v-59.5
					c-0.1-1-0.6-1.9-1.4-2.4L97,261.2c-0.7-0.4-1.3-0.1-1.4,0.6C95.6,261.9,95.6,261.9,95.6,262z"/>
				<path class="st17" d="M174.3,366.9v-4l2.6-1.5v4c0,0.9-0.5,1.8-1.3,2.4c-0.4,0.2-0.8,0.3-1.3,0.3c-0.1,0-0.2,0-0.3,0h-0.3l0,0
					l-0.2-0.1l0,0h-0.1l-0.2-0.1C173.8,368,174.3,367.7,174.3,366.9z"/>
				<path class="st1" d="M95.6,317.5v4.1c0.1,1,0.6,1.9,1.4,2.4l75.9,43.7l0.1,0.1l0,0c0.7,0.3,1.2-0.1,1.2-0.9v-4L95.6,317.5z"/>
				<path class="st17" d="M173.9,306c0.2,0.4,0.4,0.9,0.4,1.4v55.5l2.6-1.5v-55.5c0-0.5-0.2-0.9-0.4-1.4L173.9,306z"/>
				<path class="st2" d="M171.7,355.9v-47.7c0-0.6-0.3-1.1-0.8-1.4l-71.8-41.4c-0.4-0.3-0.8,0-0.8,0.5v47.7c0,0.6,0.3,1.1,0.8,1.4
					l71.8,41.4C171.3,356.6,171.7,356.4,171.7,355.9z"/>
				<path class="st7" d="M122.2,303.5c0.1,5,1.4,9.9,3.8,14.2c2.4,4.6,5.6,8.2,9.1,10.2s6.6,2.1,9,0.2s3.8-5.4,3.8-9.9
					c-0.1-5-1.4-9.9-3.7-14.3c0-0.1-0.1-0.1-0.1-0.2l-0.2-0.4c-2-3.9-5-7.3-8.7-9.6c-3.4-2-6.6-2-9-0.2l0,0l-0.2,0.1
					C123.4,295.6,122.2,299,122.2,303.5z M122.4,303.8v-0.4c0-4.4,1.4-7.7,3.5-9.4c0.1-0.1,0.1-0.1,0.2-0.1c2-1.4,4.6-1.7,6.8-0.7
					c0.5,0.2,1,0.4,1.4,0.6l0.6,0.3l0.6,0.4c0.5,0.3,1,0.6,1.4,1c2.7,2.2,4.9,5,6.6,8.1l0.2,0.4c2.3,4.3,3.6,9.1,3.8,14v0.4
					c-0.1,8.2-4.6,12.4-10.5,10.2c-0.5-0.2-1-0.4-1.4-0.6l-0.6-0.3l-0.6-0.4c-0.5-0.3-1-0.6-1.4-1
					C127,321.5,122.5,312.1,122.4,303.8L122.4,303.8z"/>
				<path class="st7" d="M125.5,318c-2.5-4.6-3.8-9.7-3.9-14.9c0-4.6,1.3-8.3,3.8-10.2l0,0l0.2-0.1l0,0c2.5-1.9,5.9-1.8,9.4,0.3
					c3.4,2,6.7,5.6,9.1,10.1l0.2,0.4l0.1,0.2c2.5,4.6,3.8,9.7,3.9,14.9c0,4.8-1.4,8.4-3.9,10.4s-5.9,1.8-9.5-0.2
					S128,322.9,125.5,318z M134.4,294.6c-0.4-0.2-0.9-0.4-1.3-0.6c-2.1-0.9-4.6-0.7-6.5,0.7l-0.2,0.1c-2.1,1.7-3.3,4.9-3.3,9v0.4
					c0.1,7.8,4.3,16.8,10,21.4l0,0c0.4,0.4,0.9,0.7,1.4,1c0.4,0.2,0.7,0.5,1.1,0.6c0.4,0.2,0.9,0.4,1.4,0.6c5.8,2.1,10-2,10-9.8
					c0-0.1,0-0.1,0-0.2c0-0.1,0-0.1,0-0.2c-0.1-4.7-1.4-9.2-3.6-13.3c-0.1-0.1-0.1-0.2-0.2-0.4c-1.6-3-3.7-5.6-6.2-7.7
					c-0.5-0.4-0.9-0.7-1.4-1l-0.6-0.4L134.4,294.6z"/>
				<path class="st7" d="M125.5,293.3l0.2-0.1l0,0l0.2-0.1l0.2,0.4c0.1,0.1,0.1,0.2,0.2,0.4c0.7,1.3,1.5,2.5,2.3,3.6l0.2,0.3
					c1.1,1.4,2.3,2.7,3.7,3.8l0.3,0.2c0.6,0.5,1.2,0.9,1.8,1.2c0.7,0.4,1.5,0.7,2.3,1l0.3,0.1c1.2,0.4,2.4,0.4,3.6,0.2l0.2,0
					c0.8-0.2,1.5-0.5,2.2-1l0.2-0.1l0.2-0.2l0.2,0.4l0.2,0.4l0.2,0.4l-0.2,0.2l-0.2,0.1l0,0c-0.7,0.5-1.5,0.9-2.4,1.1
					c-0.1,0-0.2,0-0.2,0.1c-1.3,0.2-2.6,0.2-3.9-0.2l-0.3-0.1c-0.9-0.3-1.7-0.7-2.5-1.1c-0.7-0.4-1.3-0.8-1.9-1.3l-0.3-0.2
					c-1.5-1.2-2.8-2.6-4-4.1l-0.2-0.3c-0.9-1.3-1.8-2.6-2.5-4c-0.1-0.1-0.1-0.2-0.2-0.4l-0.2-0.4L125.5,293.3z"/>
				<path class="st7" d="M125.5,317l0.2-0.1c0.8-0.5,1.6-0.9,2.5-1h0.2c1.4-0.2,2.7,0,4,0.5l0.3,0.1c0.7,0.3,1.3,0.6,1.9,0.9
					c0.9,0.5,1.7,1.1,2.5,1.7c0.1,0.1,0.2,0.1,0.3,0.2c1.4,1.3,2.7,2.7,3.9,4.2l0.2,0.3c0.9,1.2,1.7,2.5,2.4,3.9l0,0l0.2,0.3
					l0.2,0.4l-0.2,0.1l-0.2,0.1l-0.2,0.1l-0.2-0.4c-0.1-0.1-0.1-0.2-0.2-0.4c-0.6-1.2-1.4-2.4-2.2-3.6l-0.2-0.3
					c-1.1-1.5-2.3-2.8-3.6-4l-0.2-0.2c-0.7-0.6-1.5-1.2-2.3-1.6c-0.6-0.3-1.2-0.6-1.8-0.9l-0.2-0.1c-1.2-0.4-2.5-0.6-3.7-0.4h-0.2
					c-0.8,0.1-1.6,0.5-2.3,0.9l-0.2,0.1l-0.2,0.1l-0.2-0.4v-0.1l-0.2-0.3l-0.2-0.4L125.5,317z"/>
				<path class="st7" d="M128.2,307c0,4.5,0.6,9,1.9,13.4c1.3,4.1,3,7,4.9,8s3.6,0.2,4.9-2.4s1.9-6.5,1.9-11.1c0-4.5-0.6-9-1.9-13.4
					c-1.3-4.1-3-7-4.9-8s-3.6-0.2-4.9,2.4S128.2,302.4,128.2,307z M130.7,320c-1.2-4.1-1.8-8.4-1.8-12.7c0-4.4,0.6-8.1,1.8-10.6
					s2.6-3.2,4.2-2.3s3.1,3.5,4.2,7.2c1.2,4.1,1.8,8.4,1.8,12.7c0,4.4-0.6,8.1-1.8,10.6s-2.6,3.2-4.2,2.3S131.9,323.7,130.7,320z"/>
				<path class="st7" d="M122.3,303l25.3,14.6c0.3,0.2,0.4,0.5,0.4,0.9c0,0.3-0.2,0.5-0.4,0.4l-25.3-14.6c-0.3-0.2-0.4-0.5-0.4-0.9
					C121.8,303,122.1,302.8,122.3,303z"/>
				<path class="st7" d="M134.5,327.5v-33.8c0-0.3,0.2-0.5,0.5-0.3c0.3,0.2,0.4,0.5,0.5,0.8v33.8c0,0.3-0.2,0.4-0.5,0.3
					C134.7,328.2,134.5,327.9,134.5,327.5z"/>
			</g>
			<g id="freepik--Keyboard--inject-1--inject-68">
				<g id="freepik--keyboard--inject-1--inject-68">
					<path class="st2" d="M71.4,359.5c0-0.3,0.2-0.5,0.4-0.6l17.8-10.3c0.7-0.3,1.5-0.3,2.1,0l54.4,31.4c0.2,0.1,0.4,0.3,0.4,0.6
						v1.9c0,0.3-0.2,0.5-0.4,0.6l-17.8,10.3c-0.7,0.3-1.5,0.3-2.1,0l-54.4-31.4c-0.2-0.1-0.4-0.3-0.4-0.6
						C71.4,361.2,71.4,359.8,71.4,359.5z"/>
					<path class="st19" d="M71.4,359.5c0-0.3,0.2-0.5,0.4-0.6l17.8-10.3c0.7-0.3,1.5-0.3,2.1,0l54.4,31.4c0.2,0.1,0.4,0.3,0.4,0.6
						v1.9c0,0.3-0.2,0.5-0.4,0.6l-17.8,10.3c-0.7,0.3-1.5,0.3-2.1,0l-54.4-31.4c-0.2-0.1-0.4-0.3-0.4-0.6
						C71.4,361.2,71.4,359.8,71.4,359.5z"/>
					<path class="st2" d="M128.4,391.5l17.8-10.2c0.3-0.1,0.5-0.5,0.4-0.8c-0.1-0.2-0.2-0.3-0.4-0.4l-54.4-31.4
						c-0.7-0.3-1.5-0.3-2.1,0l-17.8,10.3c-0.3,0.1-0.5,0.5-0.4,0.8c0.1,0.2,0.2,0.3,0.4,0.4l54.4,31.4
						C126.9,391.9,127.7,391.9,128.4,391.5z"/>
					<path class="st18" d="M128.4,391.5l17.8-10.2c0.3-0.1,0.5-0.5,0.4-0.8c-0.1-0.2-0.2-0.3-0.4-0.4l-54.4-31.4
						c-0.7-0.3-1.5-0.3-2.1,0l-17.8,10.3c-0.3,0.1-0.5,0.5-0.4,0.8c0.1,0.2,0.2,0.3,0.4,0.4l54.4,31.4
						C126.9,391.9,127.7,391.9,128.4,391.5z"/>
					<path class="st2" d="M127.4,391.8v1.9c0.3,0,0.7-0.1,1-0.2l17.8-10.3c0.2-0.1,0.4-0.3,0.4-0.6v-1.9c0,0.3-0.2,0.5-0.4,0.6
						l-17.8,10.2C128.1,391.7,127.7,391.8,127.4,391.8z"/>
					<path class="st20" d="M127.4,391.8v1.9c0.3,0,0.7-0.1,1-0.2l17.8-10.3c0.2-0.1,0.4-0.3,0.4-0.6v-1.9c0,0.3-0.2,0.5-0.4,0.6
						l-17.8,10.2C128.1,391.7,127.7,391.8,127.4,391.8z"/>
					<path class="st16" d="M123.4,372.8l-2,1.2c0,0-0.1,0.1-0.1,0.1l1.8,1.1l2.1-1.3L123.4,372.8z"/>
					<path class="st16" d="M125.8,374.2l-2,1.2c0,0,0,0,0,0.1l0,0l1.8,1l2.1-1.3L125.8,374.2z"/>
					<path class="st16" d="M119.3,370.4l-2,1.2c0,0-0.1,0-0.1,0.1l3,1.8l2.1-1.3L119.3,370.4z"/>
					<path class="st16" d="M116.8,369l-2,1.2c0,0,0,0,0,0.1l1.8,1.1l2-1.3L116.8,369z"/>
					<path class="st16" d="M84.9,362.5l1.8,1.1l2.1-1.3l-1.8-1.1l-2,1.2C85,362.4,84.9,362.5,84.9,362.5
						C84.9,362.5,84.9,362.5,84.9,362.5z"/>
					<path class="st16" d="M114.4,367.6l-2,1.2c0,0-0.1,0.1-0.1,0.1l1.8,1.1l2.1-1.3L114.4,367.6z"/>
					<path class="st16" d="M122.5,375.4l-1.8-1.1l-2,1.2c0,0,0,0,0,0.1l1.8,1.1L122.5,375.4z"/>
					<path class="st16" d="M105.9,371.5l1.8,1.1l2.1-1.3l-1.8-1.1L105.9,371.5C106,371.4,105.9,371.5,105.9,371.5z"/>
					<path class="st16" d="M121,377l1.8,1.1l2.1-1.3l-1.8-1.1L121,377C121,376.9,121,377,121,377z"/>
					<path class="st16" d="M103.5,370.1l1.8,1.1l2.1-1.3l-1.8-1.1L103.5,370.1C103.5,370,103.5,370,103.5,370.1z"/>
					<path class="st16" d="M101,368.7l1.8,1.1l2.1-1.3l-1.8-1.1L101,368.7C101,368.6,101,368.6,101,368.7z"/>
					<path class="st16" d="M110.8,374.3l3.9,2.3l4.9-2.9l-2.1-1.2l-2.6,1.5c-0.1,0-0.1,0-0.2,0c-0.1,0-0.1,0-0.2,0l-1.6-0.9
						L110.8,374.3C110.9,374.2,110.8,374.3,110.8,374.3z"/>
					<path class="st16" d="M109.5,364.7l-2,1.2c0,0,0,0,0,0.1l1.8,1.1l2.1-1.3L109.5,364.7z"/>
					<path class="st16" d="M108.3,372.9l1.8,1.1l2.1-1.3l-1.8-1.1L108.3,372.9C108.3,372.8,108.3,372.9,108.3,372.9z"/>
					<path class="st16" d="M86,356.8l1.8,1.1l2.2-1.3l-1.8-1.1l-2,1.2C86.1,356.7,86.1,356.7,86,356.8C86,356.8,86,356.8,86,356.8z"
						/>
					<path class="st16" d="M90,353.5l-2,1.2c0,0,0,0,0,0.1l0,0l1.8,1l2.1-1.3L90,353.5z"/>
					<path class="st16" d="M83.9,358.8L83.9,358.8l1.8,1l2.1-1.3l-1.8-1L83.9,358.8C84,358.7,83.9,358.7,83.9,358.8z"/>
					<path class="st16" d="M80,359.7l1.8,1.1l2.1-1.3l-1.8-1.1L80,359.7C80,359.6,80,359.7,80,359.7z"/>
					<path class="st16" d="M92.4,354.9l-2,1.2c0,0,0,0,0,0.1l1.8,1.1l2.1-1.3L92.4,354.9z"/>
					<path class="st16" d="M82.4,361.1l1.8,1.1l2.1-1.3l-1.8-1.1L82.4,361.1C82.5,361.1,82.5,361.1,82.4,361.1z"/>
					<path class="st16" d="M99.8,359.1l-2,1.2c0,0,0,0,0,0.1l1.8,1.1l2.1-1.3L99.8,359.1z"/>
					<path class="st16" d="M102.2,360.5l-2,1.2c0,0,0,0.1,0,0.1l1.8,1.1l2.1-1.3L102.2,360.5z"/>
					<path class="st16" d="M104.6,361.9l-2,1.2c0,0-0.1,0.1-0.1,0.1l1.8,1.1l2.1-1.3L104.6,361.9z"/>
					<path class="st16" d="M97.3,357.7l-2,1.2c0,0,0,0.1,0,0.1L97,360l2.1-1.3L97.3,357.7z"/>
					<path class="st16" d="M107.1,363.3l-2,1.2c0,0,0,0,0,0.1l1.8,1.1l2.1-1.3L107.1,363.3z"/>
					<path class="st16" d="M94.9,356.3l-2,1.2c0,0,0,0,0,0.1l1.8,1.1l2.1-1.3L94.9,356.3z"/>
					<path class="st16" d="M112,366.1l-2,1.2c0,0,0,0,0,0.1l1.8,1.1l2.1-1.3L112,366.1z"/>
					<path class="st16" d="M112.6,369.7l-2,1.2c0,0-0.1,0-0.1,0.1v0.1l1.8,1l2.1-1.3L112.6,369.7z"/>
					<path class="st16" d="M131.2,377.3l-2,1.2c-0.1,0-0.1,0.1-0.1,0.1l1.8,1.1l2.1-1.3L131.2,377.3z"/>
					<path class="st16" d="M133.7,378.7l-2,1.2c0,0,0,0,0,0.1l1.8,1.1l2.1-1.3L133.7,378.7z"/>
					<path class="st16" d="M110.1,368.3l-2,1.2c0,0,0,0,0,0.1l1.8,1.1l2.1-1.3L110.1,368.3z"/>
					<path class="st16" d="M136.1,380.1l-2,1.2c-0.1,0-0.1,0.1-0.1,0.1l1.8,1.1l2.1-1.3L136.1,380.1z"/>
					<path class="st16" d="M112.9,372.3L112.9,372.3l1.8,1l2.1-1.3l-1.8-1L112.9,372.3C113,372.3,112.9,372.3,112.9,372.3z"/>
					<path class="st16" d="M128.5,378.9l-2,1.2c-0.1,0-0.1,0.1-0.1,0.1l1.8,1.1l2.1-1.3L128.5,378.9z"/>
					<path class="st16" d="M133.4,381.7l-2,1.2c0,0-0.1,0.1-0.1,0.1l1.8,1l2.1-1.3L133.4,381.7z"/>
					<path class="st16" d="M128.9,381.5l1.8,1.1l2.1-1.3l-1.9-1.1L128.9,381.5C128.9,381.5,128.9,381.5,128.9,381.5z"/>
					<path class="st16" d="M131,385.9C131,385.9,131,385.9,131,385.9v0.1l1.8,1l4.9-2.9l-1.9-1.1L131,385.9z"/>
					<path class="st16" d="M107.7,366.9l-2,1.2c0,0,0,0,0,0.1l0,0l1.8,1l2.1-1.3L107.7,366.9z"/>
					<path class="st16" d="M126.1,383.1L126.1,383.1l1.8,1l2.1-1.1l-1.9-1.1L126.1,383.1C126.1,383.1,126.1,383.1,126.1,383.1z"/>
					<path class="st16" d="M128.5,384.5l1.8,1.1l2.1-1.3l-1.9-1.1L128.5,384.5C128.5,384.5,128.5,384.5,128.5,384.5z"/>
					<path class="st16" d="M95.4,359.8l-2,1.2c0,0-0.1,0.1-0.1,0.1l1.8,1.1l2.1-1.3L95.4,359.8z"/>
					<path class="st16" d="M90.6,357l-2,1.2c-0.1,0-0.1,0.1-0.1,0.1l0,0l1.8,1l2.1-1.3L90.6,357z"/>
					<path class="st16" d="M88.8,361.6l1.8,1.1l2.1-1.3l-1.8-1.1L88.8,361.6C88.8,361.5,88.8,361.6,88.8,361.6
						C88.8,361.6,88.8,361.6,88.8,361.6z"/>
					<path class="st16" d="M86.4,360.2l1.8,1.1l2.1-1.3l-1.8-1L86.4,360.2C86.4,360.2,86.4,360.2,86.4,360.2z"/>
					<path class="st16" d="M91.2,363L91.2,363l1.8,1l2.1-1.3l-1.8-1.1l-2,1.2C91.2,363,91.2,363,91.2,363z"/>
					<path class="st16" d="M105.2,365.4l-2,1.2c0,0,0,0,0,0.1v0l1.8,1l2.1-1.3L105.2,365.4z"/>
					<path class="st16" d="M96.1,365.8l1.8,1.1l2.1-1.3l-1.8-1.1L96.1,365.8C96.2,365.8,96.1,365.8,96.1,365.8z"/>
					<path class="st16" d="M93.7,364.4l1.8,1.1l2.1-1.3l-1.8-1.1L93.7,364.4C93.8,364.4,93.7,364.4,93.7,364.4z"/>
					<path class="st16" d="M100.3,362.6l-2,1.2c0,0-0.1,0-0.1,0.1l1.8,1.1l2.1-1.3L100.3,362.6z"/>
					<path class="st16" d="M93,358.4l-2,1.2c0,0-0.1,0.1-0.1,0.1l1.8,1.1l2.1-1.3L93,358.4z"/>
					<path class="st16" d="M102.8,364l-2,1.2c0,0-0.1,0-0.1,0.1l1.8,1.1l2.1-1.3L102.8,364z"/>
					<path class="st16" d="M97.9,361.2l-2,1.2c0,0,0,0.1,0,0.1l0,0l1.8,1l2.1-1.3L97.9,361.2z"/>
					<path class="st16" d="M98.6,367.2l1.8,1.1l2.1-1.3l-1.8-1.1L98.6,367.2C98.6,367.2,98.6,367.2,98.6,367.2z"/>
					<path class="st16" d="M128.3,375.6l-2,1.2c0,0-0.1,0-0.1,0.1l1.8,1.1l2.1-1.3L128.3,375.6z"/>
					<path class="st16" d="M89.4,353.1l-1.8-1.1l-2,1.2c0,0,0,0,0,0.1l0,0l1.8,1L89.4,353.1z"/>
					<path class="st16" d="M87.5,355.2l-2.8-1.6l-2,1.2c0,0,0,0,0,0.1l0,0l2.7,1.6L87.5,355.2z"/>
					<path class="st16" d="M93.1,351.4l-2.2-1.3l-2,1.2c0,0,0,0,0,0.1l2.2,1.3L93.1,351.4z"/>
					<path class="st16" d="M81.5,358.1l-2.2-1.3l-2,1.2c0,0-0.1,0.1-0.1,0.1l2.2,1.3L81.5,358.1z"/>
					<path class="st16" d="M85.4,357.2l-3.4-2l-2,1.2c0,0,0,0,0,0.1l0,0l3.3,1.9L85.4,357.2z"/>
					<path class="st16" d="M92.7,353.6l1.8,1.1l2.1-1.3l-1.8-1.1L92.7,353.6C92.7,353.5,92.7,353.6,92.7,353.6
						C92.7,353.6,92.7,353.6,92.7,353.6z"/>
					<path class="st16" d="M76.5,358.4l-2,1.2c0,0-0.1,0-0.1,0.1l2.7,1.6l2.1-1.3L76.5,358.4z"/>
					<path class="st16" d="M95.1,355l1.8,1.1l2.1-1.3l-1.8-1.1L95.1,355C95.2,354.9,95.2,355,95.1,355z"/>
					<path class="st16" d="M106,361.3L106,361.3l1.8,1l2.1-1.3l-1.9-1.1L106,361.3C106,361.2,106,361.2,106,361.3z"/>
					<path class="st16" d="M108.4,362.7l1.8,1.1l2.1-1.3l-1.8-1.1L108.4,362.7C108.5,362.6,108.4,362.7,108.4,362.7z"/>
					<path class="st16" d="M103.5,359.9L103.5,359.9l1.8,1l2.1-1.3l-1.8-1.1l-2,1.2C103.6,359.8,103.5,359.8,103.5,359.9z"/>
					<path class="st16" d="M100,357.8L100,357.8l1.8,1l2.1-1.3l-1.8-1.1l-2,1.2c0,0-0.1,0-0.1,0C99.9,357.8,100,357.8,100,357.8z"/>
					<path class="st16" d="M97.6,356.4l1.8,1.1l2.1-1.3l-1.8-1.1L97.6,356.4C97.7,356.4,97.6,356.4,97.6,356.4z"/>
					<path class="st16" d="M125.1,386.5l-2,1.2c0,0,0,0,0,0.1l0,0l1.8,1l2.1-1.3L125.1,386.5z"/>
					<path class="st16" d="M112.4,379.1l-2,1.2c0,0-0.1,0.1-0.1,0.1l1.8,1.1l2.1-1.3L112.4,379.1z"/>
					<path class="st16" d="M120.2,383.7l-2,1.2c0,0-0.1,0-0.1,0.1l0,0l4.2,2.5l2.1-1.3L120.2,383.7z"/>
					<path class="st16" d="M114.8,380.5l-2,1.2c0,0-0.1,0.1-0.1,0.1l1.8,1.1l2.1-1.3L114.8,380.5z"/>
					<path class="st16" d="M117.2,382l-2,1.2c-0.1,0-0.1,0.1-0.1,0.1l1.8,1.1l2.1-1.3L117.2,382z"/>
					<path class="st16" d="M110.9,364.1L110.9,364.1l1.8,1l2.1-1.3l-1.8-1.1l-2,1.2C110.9,364,110.9,364,110.9,364.1z"/>
					<path class="st16" d="M132.1,387.4l-1.8-1.1l-4.8,2.8c0,0,0,0,0,0.1l0,0l1.8,1L132.1,387.4z"/>
					<path class="st16" d="M82.7,362l-2,1.2c0,0-0.1,0.1-0.1,0.1l2.2,1.3l2.1-1.3L82.7,362z"/>
					<path class="st16" d="M85.5,363.6l-2,1.2c0,0-0.1,0.1-0.1,0.1l0,0l13.9,8l2.1-1.3L85.5,363.6z"/>
					<path class="st16" d="M87.3,363.9l1.8,1.1l2.1-1.3l-1.8-1.1L87.3,363.9C87.4,363.9,87.3,363.9,87.3,363.9z"/>
					<path class="st16" d="M79.8,360.4l-2,1.2c0,0-0.1,0-0.1,0.1l2.2,1.3l2.1-1.3L79.8,360.4z"/>
					<path class="st16" d="M100,372l-2,1.2c0,0,0,0.1,0,0.1l0,0l2.2,1.3l2.1-1.3L100,372z"/>
					<path class="st16" d="M105.7,375.3l-2,1.2c0,0,0,0,0,0.1l0,0l2.2,1.3l2.1-1.3L105.7,375.3z"/>
					<path class="st16" d="M102.8,373.6l-2,1.2c0,0,0,0,0,0.1l2.2,1.3l2.1-1.3L102.8,373.6z"/>
					<path class="st16" d="M108.5,376.9l-2,1.2c0,0-0.1,0.1-0.1,0.1v0l2.7,1.5l2.1-1.3L108.5,376.9z"/>
					<path class="st16" d="M123.4,378.4L123.4,378.4l1.8,1l2.1-1.3l-1.8-1.1l-2,1.2C123.5,378.3,123.4,378.4,123.4,378.4z"/>
					<path class="st16" d="M115.5,380.2L115.5,380.2l1.8,1l2.1-1.3l-1.8-0.9L115.5,380.2C115.5,380.2,115.5,380.2,115.5,380.2z"/>
					<path class="st16" d="M106.9,375.2l5,2.9l2.1-1.3l-5-2.9l-2,1.2C107,375.1,107,375.1,106.9,375.2
						C106.9,375.1,106.9,375.2,106.9,375.2z"/>
					<path class="st16" d="M120.9,383.3L120.9,383.3l1.8,1l2.1-1.3l-1.8-1l-2,1.2C121,383.2,120.9,383.2,120.9,383.3
						C120.9,383.3,120.9,383.3,120.9,383.3z"/>
					<path class="st16" d="M123.3,384.7L123.3,384.7l1.8,1l2.1-1.3l-1.8-1.1l-2,1.2C123.4,384.6,123.3,384.7,123.3,384.7z"/>
					<path class="st16" d="M104.4,373.8l1.8,1.1l2.1-1.3l-1.8-1.1L104.4,373.8C104.5,373.7,104.4,373.8,104.4,373.8z"/>
					<path class="st16" d="M123.7,381.7L123.7,381.7l1.8,1l2.1-1.3l-1.8-1.1l-2,1.2C123.7,381.7,123.7,381.7,123.7,381.7z"/>
					<path class="st16" d="M92.2,366.8l1.8,1.1l2.1-1.3l-1.8-1.1L92.2,366.8C92.2,366.7,92.2,366.7,92.2,366.8z"/>
					<path class="st16" d="M102,372.4l1.8,1.1l2.1-1.3l-1.8-1.1L102,372.4C102.1,372.3,102,372.4,102,372.4z"/>
					<path class="st16" d="M89.8,365.4L89.8,365.4l1.8,1l2.1-1.3l-1.8-1.1l-2,1.2C89.8,365.2,89.8,365.3,89.8,365.4
						C89.8,365.3,89.8,365.3,89.8,365.4z"/>
					<path class="st16" d="M94.7,368.2l1.8,1.1l2.1-1.2l-1.8-1.1L94.7,368.2C94.7,368.1,94.7,368.1,94.7,368.2z"/>
					<path class="st16" d="M97.1,369.6L97.1,369.6l1.8,1l2.1-1.2l-1.8-1.1L97.1,369.6C97.1,369.5,97.1,369.5,97.1,369.6z"/>
					<path class="st16" d="M99.5,371L99.5,371l1.8,1l2.1-1.3l-1.8-1.1l-2,1.2C99.6,370.9,99.5,370.9,99.5,371
						C99.5,371,99.5,371,99.5,371z"/>
					<path class="st16" d="M116.8,367.5l1.8,1.1l2.1-1.3l-1.8-1.1L116.8,367.5C116.8,367.4,116.8,367.5,116.8,367.5
						C116.8,367.5,116.8,367.5,116.8,367.5z"/>
					<path class="st16" d="M125.8,386.1L125.8,386.1l1.8,1l2.1-1.1l-1.8-1.1L125.8,386.1C125.8,386.1,125.8,386.1,125.8,386.1z"/>
					<path class="st16" d="M121.7,370.4l1.8,1.1l2.1-1.3l-1.8-1.1L121.7,370.4C121.8,370.3,121.7,370.3,121.7,370.4z"/>
					<path class="st16" d="M127.1,373.5l1.8,1.1l2.1-1.3l-1.9-1.1L127.1,373.5C127.2,373.4,127.1,373.4,127.1,373.5z"/>
					<path class="st16" d="M124.7,372.1l1.8,1.1l2.1-1.3l-1.8-1.1L124.7,372.1C124.7,372,124.7,372,124.7,372.1
						C124.7,372.1,124.7,372.1,124.7,372.1z"/>
					<path class="st16" d="M114.4,366.1l1.8,1.1l2.1-1.3l-1.8-1.1L114.4,366.1C114.4,366,114.4,366.1,114.4,366.1z"/>
					<path class="st16" d="M119.2,368.9L119.2,368.9l1.8,1l2.1-1.3l-1.8-1.1l-2,1.2C119.3,368.8,119.2,368.9,119.2,368.9z"/>
					<path class="st16" d="M129.6,374.9l1.8,1.1l2.1-1.3l-1.9-1.1L129.6,374.9C129.6,374.8,129.6,374.9,129.6,374.9z"/>
					<path class="st16" d="M140.6,380.4l1.8,1.1l1.1-0.7l-1.9-1.1L140.6,380.4C140.6,380.4,140.6,380.4,140.6,380.4z"/>
					<path class="st16" d="M136.5,382.8l1.8,1.1l2.1-1.3l-1.9-1.1L136.5,382.8C136.5,382.7,136.5,382.8,136.5,382.8z"/>
					<path class="st16" d="M133.2,376.2L133.2,376.2l1.8,1l1.1-0.7l-1.9-1.1l-1,0.6c0,0-0.1,0-0.1,0.1
						C133.2,376.1,133.2,376.2,133.2,376.2z"/>
					<path class="st16" d="M135.7,377.6L135.7,377.6l1.8,1l1.1-0.7l-1.8-1.1l-1,0.6C135.7,377.5,135.6,377.5,135.7,377.6
						C135.7,377.6,135.7,377.6,135.7,377.6z"/>
					<path class="st16" d="M138.1,379l1.8,1.1l1.1-0.7l-1.9-1.1L138.1,379L138.1,379z"/>
				</g>
			</g>
		</g>
	</g>
</g>
<g id="freepik--character-2--inject-1--inject-68">
	<g id="freepik--Character--inject-1--inject-68">
		<path class="st16" d="M440.2,381.9c-0.1,0.7-0.1,1.5,0.1,2.2c0.4,0.9,1,1.6,1.8,2.1c0.6,0.5,1.1,1.1,1.5,1.8
			c0.4,0.7,0.9,1.4,1.5,1.9c0.8,0.4,1.7,0.5,2.5,0.2c0.6-0.3,0.9-0.5,0.8-1.5s-3.2-1.4-3.2-1.4L440.2,381.9z"/>
		<path class="st1" d="M448,385.4c0.3,0.1,0.3,0.6,0.4,1.6c0,0.8,0.4,1.9-0.7,2.4c-1,0.4-2.1,0.1-2.8-0.6c-0.7-1-1.4-1.9-2.2-2.8
			c-0.9-1-1.8-1.3-2.2-3.2c-0.2-1.2,0-1.7,0.8-2.1c1.1-0.5,2.9,1.1,3.8,1.3S447.7,385.3,448,385.4z"/>
		<path class="st21" d="M445,382.1l-0.1-0.1c-1,0.1-2,0.7-2.5,1.6c-0.1,0.3,0.3,0.6,0.6,0.3c0.5-0.9,1.4-1.5,2.5-1.6
			C445.3,382.2,445.2,382.1,445,382.1z"/>
		<path class="st21" d="M445.7,382.6c-1,0.1-1.8,0.7-2.3,1.6c-0.1,0.3,0.3,0.6,0.6,0.3c0.4-0.8,1.1-1.3,2-1.5
			C446,382.9,445.8,382.8,445.7,382.6z"/>
		<path class="st21" d="M440.9,384.2c0,0,0.1-2.3,3.1-2.6l0.2,0.1c-0.3-0.6-0.9-1-1.5-1.2c-0.9-0.3-1.8,0-2.4,0.7
			C439.9,381.9,440.4,383.8,440.9,384.2z"/>
		<path class="st22" d="M448,383.7v1.9c-0.9,0.6-2.2,0.6-3.1,0.1c-0.1-0.1-0.2-2-0.2-2L448,383.7z"/>
		<path class="st16" d="M424.2,396.4c-0.2,0.9,0.1,1.3,1.2,1.9c1.4,0.7,3.1,0.8,4.7,0.3c1.8-0.5,2.7-1.3,3.5-1.5s2.6-0.2,3.4-0.4
			s0.7-0.6,0.7-1.5L424.2,396.4z"/>
		<path class="st1" d="M436.9,390.9c0,0,0.4,1.1,0.5,2c0.2,0.8,0.3,1.7,0.1,2.6c-0.3,0.6-1.3,0.9-2.9,0.9c-1.3,0.2-2.6,0.6-3.7,1.3
			c-1.1,0.5-2.3,0.7-3.5,0.5c-1.4-0.2-2.9-1-3.1-1.6s-0.3-1,3-2.4c0,0,3.9-1.4,5.5-3.2L436.9,390.9z"/>
		<path class="st21" d="M430.5,397.9c0,0-0.3-2.9-2.6-3.7c-2.1-0.7-3.9,0.8-3.7,2.2C424.3,397.3,426.9,399.3,430.5,397.9z"/>
		<path class="st21" d="M428.5,393.7c0.6,0.1,1.2,0.3,1.6,0.7c0.7,0.6,0.7,0.9,0.7,0.9c0.1,0.1,0.3,0.2,0.5,0
			c0.1-0.1,0.1-0.2,0.1-0.3c-0.2-1-1.1-1.7-2-1.7C429,393.2,428.7,393.4,428.5,393.7z"/>
		<path class="st21" d="M429.8,393c0.6,0,1.2,0.2,1.6,0.6c0.7,0.6,0.7,1,0.7,1c0.1,0.1,0.4,0.1,0.5,0c0.1-0.1,0.1-0.2,0.1-0.3
			c-0.2-1-1-1.7-2-1.7C430.3,392.5,430,392.7,429.8,393z"/>
		<path class="st21" d="M431.2,392.3c0.6,0,1.2,0.2,1.6,0.5c0.7,0.5,0.7,1,0.7,1c0.2,0.2,0.6,0.1,0.6-0.3c-0.3-1-1.2-1.6-2.2-1.6
			C431.6,391.8,431.3,392,431.2,392.3z"/>
		<path class="st22" d="M436.9,389.5c0,0,0,0.9,0,1.4s-0.6,1.3-2.2,1.3c-1.1,0-1.9-0.4-1.9-1.3v-1.3L436.9,389.5z"/>
		<path class="st22" d="M451.7,333.5c0.3-12.7-0.7-15.7-4-18l-1.3,7.3c0,0,1.5,8.6,1.4,11.5c-0.1,2.6-0.4,5.2-1,7.7
			c-0.1,0.4-0.3,0.7-0.7,0.9c-0.7,0.5-1.3,1.1-1.9,1.8c-0.5,0.5-0.9,0.7-0.9,0.8c0.2,0.4,0.7,0.6,1.1,0.4c0.4-0.2,0.8-0.4,1.2-0.7
			c-0.3,0.8-0.7,1.5-1.2,2.1c-1.2,1.5-1.3,2.4,1.2,2.4c1.5,0,2.7-0.9,3.9-4.3c0.4-1.2,0.8-2.5,1.1-3.8
			C451,339,451.4,336.3,451.7,333.5z"/>
		<path class="st17" d="M451.1,338c-0.1,1.3-0.3,2.5-0.7,3.7c-1.2,0.1-2.5-0.1-3.5-0.7l0.5-3.5L451.1,338z"/>
		<path class="st16" d="M446.4,314.8c1.8-0.2,4,2.4,4.8,5.4s1,13.5-0.1,17.8c-1.3,0.3-2.6,0.2-3.7-0.5c0.1-2.5,0-4.9-0.3-7.4
			c-0.5-2.4-1.6-8.1-1.4-9S446.4,314.8,446.4,314.8z"/>
		<path class="st2" d="M450,368.1c-0.1-3.8-0.5-3.8-1.2-6.8c0.3-3.6,0.6-6.6,0.7-10.5c0.1-4.2,0-9.2,0-13.7
			c-4.6-0.3-16.1-4.1-17.5,3.1c-0.4,5.8,0.2,17.4,0.2,25.3s0,15.8,0.5,24.3c1.5,0.6,3.1,0.4,4.5-0.3c1.1-5,1.9-10.1,2.5-15.1
			c0.5-4-0.2-4.3,0-7.5s0.5-6.6,0.8-9.7s0.6-5.7,0.7-8.7c0.1-0.1,0.3-0.1,0.4-0.2c0.2,3.7,0.3,6.9,0.6,10.6s0.6,6.6,1,10.9
			c0.4,4,0.5,9.3,1.3,14.1c1.1,0.5,2.7,1,3.7,0.1C449,379.7,450.2,371.9,450,368.1z"/>
		<g class="st23">
			<path d="M450,368.1c-0.1-3.8-0.5-3.8-1.2-6.8c0.3-3.6,0.6-6.6,0.7-10.5c0.1-4.2,0-9.2,0-13.7c-4.6-0.3-16.1-4.1-17.5,3.1
				c-0.4,5.8,0.2,17.4,0.2,25.3s0,15.8,0.5,24.3c1.5,0.6,3.1,0.4,4.5-0.3c1.1-5,1.9-10.1,2.5-15.1c0.5-4-0.2-4.3,0-7.5
				s0.5-6.6,0.8-9.7s0.6-5.7,0.7-8.7c0.1-0.1,0.3-0.1,0.4-0.2c0.2,3.7,0.3,6.9,0.6,10.6s0.6,6.6,1,10.9c0.4,4,0.5,9.3,1.3,14.1
				c1.1,0.5,2.7,1,3.7,0.1C449,379.7,450.2,371.9,450,368.1z"/>
		</g>
		<g class="st9">
			<path d="M441.2,348.4c2.3-1.1,4.4-2.4,6.4-4c-1.3,1.7-2.8,3.1-4.6,4.2c0,1-0.9,9-0.9,8.8c-0.2-1.8-0.3-6.3-0.6-9
				C441.4,348.4,441.3,348.4,441.2,348.4z"/>
		</g>
		<path class="st1" d="M449,317.4c-0.5-1.6-2.5-3.3-4.5-2.9c-2.9,0.5-5.9,1.2-8.7,2.2c-1.8,0.6-3.5,2.2-3.6,8.2
			c0,0-0.6,13.9-0.6,16.6c3.8,1.5,7.9,1.9,11.9,1.2c5.5-1.2,6.1-3.5,6.1-3.5s0.1-10-0.1-14.3C449.4,321.2,449.4,318.5,449,317.4z"/>
		<polygon class="st22" points="437.5,312.5 438.1,318.1 443.1,318.1 442.5,311.8 		"/>
		<path class="st16" d="M436.4,316.5c0.4-0.8,0.6-1.8,1.3-1.9c1.2,0.2,2.5,0.1,3.7-0.1c0.6-0.2,1.1-0.6,1.5-1.1
			c0.6-0.3,1.3-0.1,1.8,0.3c0.7,0.8,2.9,2.1,3.5,4.3s1,6.5-1.6,7.3c-3.9,1.2-6.6-0.6-7.5-3.8C438.1,318.1,438.4,317.1,436.4,316.5z"
			/>
		<path class="st17" d="M439.4,316.8c0.6,0.9,1.3,4.6,2.8,6.1s4.7,1.1,5.3-0.4c-0.1,1.2-1.2,2.1-2.4,2.1c-2.3,0.2-4.4-1.4-4.9-3.6
			C439.6,318.8,439.7,317.8,439.4,316.8z"/>
		<path class="st24" d="M433.5,306c0,0-1.3,2-1.1,2.2s1.1,0.4,1.1,0.4L433.5,306z"/>
		<path class="st22" d="M437,300.4c-2.6,0.6-3.4,1.8-3.5,6c-0.2,4.4,0.3,5.8,0.9,6.4c0.4,0.4,2.6,0.4,3.6,0.1
			c1.4-0.4,4.4-1.6,5.8-3.8c1.6-2.6,2-6.2,0.2-7.6C441.4,299.5,438.1,300.1,437,300.4z"/>
		<path class="st17" d="M433.2,302.4c0.5,0.3,1.2,0.4,1.8,0.3c-0.1,0-0.1,0.5-0.1,0.6c0,0.2,0.2,0.4,0.3,0.5
			c0.3,0.3,0.8,0.4,1.2,0.2c-0.4,0.3-0.1,1.2,0,1.5s0.2,0.9,0.7,1.1c0,0,0.4-1.6,1.8-1.5s1.6,1.9,0.8,3s-1.7,0.7-1.7,0.7
			c0.1,1.3,0.4,2.5,1.1,3.6c3.1,0.7,6.2-1,7.2-3.9c1.6-3.8,1.6-7.1-0.8-8c0.3-1.4-0.4-2.7-1.6-3.4c-1-0.6-2.3-0.6-3.2,0
			c-0.1,0-0.4-0.6-0.4-0.7c-0.2-0.3-0.5-0.6-0.9-0.7c-1.1-0.4-2.3-0.3-3.3,0.4c-0.5,0.4-0.8,0.9-0.9,1.5c-0.9-0.1-1.9,0.1-2.7,0.6
			c-0.9,0.8-1.1,2.1-0.5,3.1C432.3,301.8,432.7,302.1,433.2,302.4z"/>
		<path class="st17" d="M445.6,301.1l1.6-1c-0.3-0.4-0.8-0.6-1.3-0.3S445.4,300.7,445.6,301.1z"/>
		<path class="st22" d="M413.9,327c0.9,0.4,10.9,7.8,12.5,7s9.6-10.3,9.6-10.3c1.4-2.1,1.4-4.9,0-7c-1.8,0-3.6,0.9-4.6,2.4
			c-1.4,2-6.6,8.7-6.6,8.7c-1.4-0.7-6.6-2.7-7.8-3.3c-0.3-0.1-0.6-0.3-0.9-0.6c-0.6-0.6-0.5-1.9-0.5-2.7c0-0.4,0-0.7,0-1
			s0.1-1.5-0.6-1.1c-0.1,0.1-0.3,0.2-0.4,0.3c-0.1,0.2-0.2,0.3-0.3,0.5c-0.1,0.4-0.1,0.9-0.2,1.4c0,0.1-0.1,0.1-0.1,0.2
			c-0.1,0-0.2,0.1-0.2,0.1c-1.1,0-2.1-1.6-2.7-2.4c-0.2-0.4-0.5-0.8-0.8-1c-0.7-0.2-1.4,0.1-1.7,0.7c-0.5,0.7-0.7,1.6-0.5,2.5
			c0.1,1.2,0.6,2.2,1.5,3.1C410.8,325.5,412.3,326.4,413.9,327z"/>
		<path class="st17" d="M421.2,326.3l-2.5-1c-1.3,0.8-2,2.2-2,3.7l2.4,1.6L421.2,326.3z"/>
		<path class="st16" d="M436.4,316.5c-1.4-0.1-2.8,0.3-3.9,1c-1.4,1.3-7.8,9.9-7.8,9.9l-3.5-1.2c-1.4,1-2.1,2.6-2.1,4.2
			c0,0,2.5,1.8,3.8,2.6c1,0.7,2.1,1.1,3.3,1.3c0.6,0,9.5-9.7,9.5-9.7c1-1.3,1.6-2.9,1.6-4.5C437.3,318.9,436.9,317.6,436.4,316.5z"
			/>
	</g>
</g>
<g id="freepik--character-1--inject-1--inject-68">
	<g id="freepik--character--inject-1--inject-68">
		<path class="st22" d="M62.5,318c-2.2,0.4-3.2,1.2-4.5,4.3s-4,10.5-4,12.6c0,1.6,5.6,9.1,5.3,9c-0.1,0,3.2-3.8,3.2-3.8l-3.4-5.3
			l2.7-5.2L62.5,318z"/>
		<path class="st1" d="M67.4,383.8c0.1,0.7,0.1,1.5-0.1,2.2c-0.4,0.9-1,1.6-1.8,2.1c-0.6,0.5-1,1.1-1.4,1.8
			c-0.4,0.7-0.9,1.3-1.5,1.9c-0.8,0.4-1.6,0.5-2.4,0.2c-0.6-0.3-0.9-0.5-0.8-1.5s3.1-1.4,3.1-1.4L67.4,383.8z"/>
		<path class="st2" d="M59.7,387.3c-0.3,0.1-0.3,0.6-0.4,1.6c0,0.8-0.3,1.9,0.7,2.4c1,0.4,2,0.2,2.8-0.6c0.7-1,1.4-1.9,2.2-2.8
			c0.9-1,1.8-1.3,2.2-3.1c0.3-1.2,0.1-1.7-0.8-2.1c-1.1-0.5-2.9,1.1-3.8,1.3S59.9,387.2,59.7,387.3z"/>
		<path class="st5" d="M59.7,387.3c-0.3,0.1-0.3,0.6-0.4,1.6c0,0.8-0.3,1.9,0.7,2.4c1,0.4,2,0.2,2.8-0.6c0.7-1,1.4-1.9,2.2-2.8
			c0.9-1,1.8-1.3,2.2-3.1c0.3-1.2,0.1-1.7-0.8-2.1c-1.1-0.5-2.9,1.1-3.8,1.3S59.9,387.2,59.7,387.3z"/>
		<path class="st21" d="M62.6,384l0.2,0c1,0.1,2,0.7,2.4,1.6c0.2,0.3-0.3,0.6-0.6,0.3c-0.5-0.9-1.4-1.5-2.4-1.6
			C62.3,384.2,62.5,384.1,62.6,384z"/>
		<path class="st21" d="M61.9,384.6c1,0.1,1.8,0.7,2.3,1.6c0.2,0.3-0.3,0.6-0.6,0.3c-0.4-0.8-1.1-1.3-2-1.5
			C61.7,384.8,61.8,384.7,61.9,384.6z"/>
		<path class="st21" d="M66.6,386.1c0,0-0.1-2.2-3.1-2.6l-0.2,0.1c0.3-0.6,0.9-1,1.5-1.1c0.8-0.3,1.8,0,2.3,0.7
			C67.7,383.9,67.2,385.7,66.6,386.1z"/>
		<path class="st1" d="M81.5,399.3c0.2,0.9-0.1,1.3-1.2,1.9c-1.4,0.7-3.1,0.8-4.6,0.3c-1.8-0.5-2.7-1.3-3.4-1.5s-2.6-0.2-3.4-0.4
			s-0.7-0.6-0.7-1.5L81.5,399.3z"/>
		<path class="st2" d="M68.8,393.8c0,0-0.3,1.1-0.5,2c-0.2,0.8-0.3,1.7-0.1,2.5c0.3,0.6,1.3,0.9,2.8,0.9c1.3,0.2,2.6,0.6,3.7,1.3
			c1.1,0.5,2.3,0.7,3.5,0.5c1.4-0.2,2.9-1,3.1-1.6s0.3-1-3-2.4c0,0-3.8-1.4-5.4-3.2L68.8,393.8z"/>
		<g class="st9">
			<path d="M68.8,393.8c0,0-0.3,1.1-0.5,2c-0.2,0.8-0.3,1.7-0.1,2.5c0.3,0.6,1.3,0.9,2.8,0.9c1.3,0.2,2.6,0.6,3.7,1.3
				c1.1,0.5,2.3,0.7,3.5,0.5c1.4-0.2,2.9-1,3.1-1.6s0.3-1-3-2.4c0,0-3.8-1.4-5.4-3.2L68.8,393.8z"/>
		</g>
		<path class="st21" d="M75.2,400.8c0,0,0.3-2.8,2.6-3.6c2.1-0.7,3.9,0.8,3.7,2.1C81.3,400.2,78.8,402.3,75.2,400.8z"/>
		<path class="st21" d="M77.2,396.6c-0.6,0.1-1.1,0.3-1.6,0.7c-0.7,0.6-0.7,0.9-0.7,0.9c-0.1,0.1-0.4,0.1-0.5,0
			c-0.1-0.1-0.1-0.2-0.1-0.3c0.2-1,1-1.7,2-1.7C76.7,396.2,77,396.3,77.2,396.6z"/>
		<path class="st21" d="M75.9,396c-0.6,0-1.2,0.2-1.6,0.6c-0.7,0.6-0.7,1-0.7,1c-0.1,0.1-0.4,0.1-0.5,0c-0.1-0.1-0.1-0.2-0.1-0.3
			c0.2-1,1-1.7,2-1.7C75.4,395.5,75.7,395.7,75.9,396z"/>
		<path class="st21" d="M74.6,395.3c-0.6,0-1.2,0.1-1.6,0.5c-0.7,0.5-0.7,1-0.7,1c-0.1,0.1-0.4,0.1-0.5,0c-0.1-0.1-0.1-0.2-0.1-0.3
			c0.3-1,1.2-1.6,2.2-1.6C74.1,394.8,74.4,395,74.6,395.3z"/>
		<path class="st22" d="M59.7,385.7v1.9c0.9,0.6,2.1,0.6,3.1,0.1c0-0.1,0.2-2,0.2-2L59.7,385.7z"/>
		<path class="st22" d="M68.8,392.5v1.4c0,0.5,0.6,1.3,2.2,1.2c1.1,0,1.9-0.3,1.9-1.3v-1.3L68.8,392.5z"/>
		<path class="st1" d="M57.6,369.3c-0.1-2,0.3-4,0.9-5.8c0,0-0.6-5-1-11.2c-0.6-9,1.5-11.9,3.3-16.1c0,0,14.6-1,14.8,5.6
			c0.3,8.9,0.1,24.8-0.1,27.7s-0.2,0.2-0.9,6c-0.6,4.6-1.7,17-1.7,17c-1.3,0.7-2.8,0.6-4.1-0.1c0,0-1.3-15.1-1.1-18.4
			c0-1.7,0.1-3.4,0.4-5.1c0,0-1.8-13.2-2.1-15.3c0,0-0.3,3.8-0.5,6.7s-0.2,5.2-0.8,11.1c-0.5,4.7-1.6,14.8-1.6,14.8
			c-1.1,0.5-2.4,0.4-3.4-0.2C59.7,386,57.5,372.6,57.6,369.3z"/>
		<path class="st16" d="M66,353.6l-0.3-3.2c-1.7-0.3-3.4-0.9-4.8-1.8c0.9,1.2,2.3,2,3.8,2.4l0.6,3.1l0.2,6.2L66,353.6z"/>
		<polygon class="st22" points="70.5,315.9 69.8,322 64.4,321.5 65,314.8 		"/>
		<path class="st22" d="M59.2,321c0.6-1.6,1.9-3.3,4-2.9l1.5,0.3c0.1,1.4,2.7,2.1,5.3,1.3c0.8,0.2,1.5,0.5,2.2,0.7
			c1.9,0.7,3.5,4.3,3.6,9.5s-0.9,13.5-0.9,13.5s-3.4,4.8-10.6,2.5c-5.2-1.7-6.1-3.2-6.1-3.2s1.8-4.3,3.1-7.9
			C58.5,327.2,58.3,323.3,59.2,321z"/>
		<path class="st2" d="M59.2,321c0.6-1.6,1.9-3.3,4-2.9l1.5,0.3c0.1,1.4,2.7,2.1,5.3,1.3c0.8,0.2,1.5,0.5,2.2,0.7
			c1.9,0.7,3.5,4.3,3.6,9.5s0.2,20.9,0.2,20.9s-1.5-1-2.6-5.9c-0.5,4.5-4.5,7.7-9,7.2c-0.5-0.1-1-0.1-1.4-0.3
			c-5.2-1.7-5.4-4-5.7-6.5c0.3-2,2.1-6.7,4.1-10.5C58.5,327.2,58.3,323.3,59.2,321z"/>
		<path class="st17" d="M74.5,308.2c0.7-1.5,0.5-3.2-0.4-4.5c-1.8-2.8-5.2-3.3-9.3-2.2c-2.9,0.9-5,3.5-5.1,6.6c-0.2,3,8.2,5.2,8,7.3
			L74.5,308.2z"/>
		<path class="st24" d="M74.7,309.3c0,0,1.1,1.8,1,2c-0.3,0.2-0.6,0.3-0.9,0.4L74.7,309.3z"/>
		<path class="st17" d="M74.4,310.4c-0.8,0-1.4-0.6-1.4-1.4c0-0.8,0.6-1.4,1.4-1.4c0.8,0,1.4,0.6,1.4,1.4l0,0
			C75.8,309.7,75.2,310.4,74.4,310.4z M74.4,307.8c-0.7,0-1.2,0.5-1.2,1.2c0,0.7,0.5,1.2,1.2,1.2c0.7,0,1.2-0.5,1.2-1.2c0,0,0,0,0,0
			C75.7,308.3,75.1,307.8,74.4,307.8C74.4,307.8,74.4,307.8,74.4,307.8L74.4,307.8z"/>
		<path class="st22" d="M71.2,303.5c1.1,0.6,3.1,1.8,3.5,6s-0.6,5.9-1.2,6.4c-0.4,0.4-2.5,0.5-3.6,0.1c-2.3-0.8-4.2-2.3-5.5-4.3
			c-1.5-2.7-1.8-6.2,0.1-7.6C66.5,302.9,69,302.6,71.2,303.5z"/>
		<path class="st24" d="M70.7,315.4l-0.2,0.9c0.9,0.2,1.9,0.1,2.8-0.1c-0.3,0-0.7,0-1-0.1C71.7,315.8,71.2,315.6,70.7,315.4z"/>
		<path class="st17" d="M71.1,308.7c1.5-0.6,2.6-1.9,2.8-3.5c0.4-2.8-3-4-3-4L71.1,308.7z"/>
		<path class="st17" d="M71.5,303.7c0,0,0.9,4-0.4,6.5c0,0-0.7-1.6-2-1.2c-0.9,0.4-1.4,1.4-1,2.4c0.1,0.3,0.3,0.6,0.6,0.8
			c0.5,0.4,1.2,0.4,1.8,0c-0.4,1.2-1.1,2.3-2,3.2c0,0-3.5,2.1-7-1.8c-3.1-3.5-2.2-9.8,2.2-11.2C66.4,301.5,69.3,302,71.5,303.7z"/>
		<path class="st22" d="M85.7,330c0.8-0.9,0.9-2.8,1.9-4.2s0.8-2.7,1.5-2.1s0.2,2.8,0.2,2.8c0.6,1.1,1,2.2,1.3,3.4
			c0.1,1.1-2.9,4-2.9,4L85.7,330z"/>
		<path class="st22" d="M89.2,326.3c0,0,1.2,1.7,6.8-0.5c1.5-0.6,0.5,2.7-1.4,4s-3.9,1.6-5.6,2.8C88.9,332.5,89.2,326.3,89.2,326.3z
			"/>
		<path class="st22" d="M71.7,320.2c2.4,0.4,3.6,0.7,4.9,3.8c1.6,3.7,4.8,10.6,4.8,10.6l4.3-4.6c0,0,0.6-0.9,1.8,1s0.6,2.4,0.6,2.4
			s-5,6.7-5.9,7.5s-2.4,0.2-3.4-1.1s-6.2-9.7-6.2-9.7S69.5,323.5,71.7,320.2z"/>
		<path class="st17" d="M60,306c-1,2.4-1.8,12.7-0.1,16s6.7,5.5,9.9,4.4c2-0.7,4.6-2.4,3-4.8c-0.4-0.6-0.9-1.1-1.5-1.6
			c-0.5-0.4-0.9-1-1.1-1.6c-0.7-1.5,0.2-6.1,0.3-6.2s-0.5,1.9-4.2,0.9C64.7,312.7,60,306,60,306z"/>
	</g>
</g>
</svg>
