<?xml version="1.0" standalone="no"?>
<!DOCTYPE svg PUBLIC "-//W3C//DTD SVG 20010904//EN"
 "http://www.w3.org/TR/2001/REC-SVG-20010904/DTD/svg10.dtd">
<svg version="1.0" xmlns="http://www.w3.org/2000/svg"
 width="500.000000pt" height="500.000000pt" viewBox="0 0 500.000000 500.000000"
 preserveAspectRatio="xMidYMid meet">

<g transform="translate(0.000000,500.000000) scale(0.100000,-0.100000)"
fill="#000000" stroke="none">
<path d="M408 3185 c-52 -29 -42 -118 14 -127 87 -14 127 77 56 126 -27 19
-35 19 -70 1z"/>
<path d="M370 2555 l0 -425 75 0 75 0 0 425 0 425 -75 0 -75 0 0 -425z"/>
<path d="M866 2912 c-32 -37 -113 -124 -179 -195 -66 -70 -126 -136 -134 -146
-11 -17 -7 -25 42 -77 30 -33 116 -127 192 -211 l138 -152 99 -1 99 0 -19 23
c-10 12 -26 29 -34 38 -8 9 -29 31 -45 50 -17 19 -88 98 -159 177 l-128 143
53 57 c29 31 64 69 78 83 56 56 224 239 238 258 14 21 13 21 -84 21 l-98 -1
-59 -67z"/>
</g>
</svg>
